<svg xmlns="http://www.w3.org/2000/svg" xmlns:xlink="http://www.w3.org/1999/xlink" width="500" zoomAndPan="magnify" viewBox="0 0 375 374.999991" height="500" preserveAspectRatio="xMidYMid meet" version="1.0"><defs><clipPath id="768ca82b62"><path d="M 0 326 L 361 326 L 361 329.675781 L 0 329.675781 Z M 0 326 " clip-rule="nonzero"/></clipPath></defs><path fill="#dae4fe" d="M 240.140625 258.789062 C 226.222656 261.691406 211.84375 263.089844 197.222656 263.703125 C 160.113281 265.246094 121.117188 261.976562 85.554688 251.109375 C 38.210938 236.644531 18.476562 179.074219 49.140625 139.433594 C 58.078125 127.890625 69.910156 121.132812 81.378906 112.582031 C 94.875 102.519531 107.238281 90.929688 116.75 76.957031 C 125.054688 64.757812 130.527344 50.796875 139.601562 39.117188 C 149.625 26.210938 164.609375 18.167969 180.636719 15.609375 C 238.167969 6.429688 301.875 39.609375 336.695312 84.429688 C 375.054688 133.804688 342.332031 201.019531 298.027344 233.777344 C 280.234375 246.925781 260.691406 254.503906 240.140625 258.789062 Z M 240.140625 258.789062 " fill-opacity="1" fill-rule="nonzero"/><path fill="#dae4fe" d="M 22.40625 182.398438 C 20.960938 182.398438 19.738281 181.292969 19.617188 179.832031 C 17.222656 150.691406 31.378906 126.949219 61.6875 109.277344 C 89.164062 93.257812 107.921875 62.777344 108.113281 62.464844 C 108.917969 61.152344 110.636719 60.722656 111.960938 61.527344 C 113.277344 62.328125 113.695312 64.046875 112.902344 65.371094 C 112.117188 66.667969 93.238281 97.359375 64.519531 114.109375 C 36.230469 130.601562 23 152.554688 25.210938 179.375 C 25.339844 180.917969 24.1875 182.261719 22.652344 182.390625 C 22.558594 182.398438 22.488281 182.398438 22.40625 182.398438 Z M 22.40625 182.398438 " fill-opacity="1" fill-rule="nonzero"/><path fill="#4b6fdd" d="M 107.722656 315.050781 C 107.722656 315.050781 108.828125 323.269531 109.914062 324.511719 C 113.558594 328.703125 121.773438 327.289062 125.851562 324.757812 C 128.425781 323.160156 126.03125 317.636719 126.03125 317.636719 Z M 107.722656 315.050781 " fill-opacity="1" fill-rule="nonzero"/><path fill="#192351" d="M 120.679688 306.613281 C 120.679688 306.613281 123.21875 312.222656 123.621094 312.8125 C 124.03125 313.40625 130.949219 321.890625 121.757812 323.765625 C 112.5625 325.636719 110.488281 324.320312 108.316406 318.109375 C 107.0625 314.523438 108.425781 307.554688 108.425781 307.554688 C 108.425781 307.554688 108.925781 309.628906 112.089844 309.671875 C 117.636719 309.746094 120.066406 308.621094 120.679688 306.613281 Z M 120.679688 306.613281 " fill-opacity="1" fill-rule="nonzero"/><path fill="#ffffff" d="M 119.644531 310.769531 L 112.628906 311.753906 C 112.363281 311.792969 112.125 311.609375 112.089844 311.34375 C 112.050781 311.078125 112.234375 310.84375 112.5 310.804688 L 119.515625 309.820312 C 119.78125 309.78125 120.019531 309.964844 120.058594 310.230469 C 120.09375 310.496094 119.910156 310.730469 119.644531 310.769531 Z M 119.644531 310.769531 " fill-opacity="1" fill-rule="nonzero"/><path fill="#ffffff" d="M 120.085938 312.667969 L 113.066406 313.65625 C 112.800781 313.691406 112.5625 313.507812 112.527344 313.242188 C 112.492188 312.980469 112.671875 312.742188 112.9375 312.703125 L 119.957031 311.71875 C 120.222656 311.683594 120.457031 311.863281 120.496094 312.128906 C 120.53125 312.386719 120.347656 312.632812 120.085938 312.667969 Z M 120.085938 312.667969 " fill-opacity="1" fill-rule="nonzero"/><path fill="#ffffff" d="M 120.566406 314.894531 L 113.550781 315.882812 C 113.285156 315.917969 113.046875 315.738281 113.011719 315.472656 C 112.976562 315.207031 113.15625 314.96875 113.421875 314.933594 L 120.441406 313.945312 C 120.707031 313.910156 120.941406 314.09375 120.980469 314.359375 C 121.015625 314.621094 120.832031 314.859375 120.566406 314.894531 Z M 120.566406 314.894531 " fill-opacity="1" fill-rule="nonzero"/><path fill="#192351" d="M 107.273438 219.59375 C 103.4375 203.421875 102.265625 186.945312 102.265625 186.945312 L 87.207031 175.183594 L 54.339844 187.183594 C 53.242188 201.839844 54.074219 267.519531 54.03125 276.550781 C 53.984375 285.582031 53.929688 306.96875 53.929688 306.96875 C 53.929688 306.96875 64.773438 309.378906 69.105469 305.726562 C 69.105469 305.726562 71.289062 289.964844 71.820312 282.597656 C 73.609375 257.464844 78.242188 215.082031 78.242188 215.082031 C 78.242188 215.082031 85.308594 235.191406 91.355469 251.097656 L 105.601562 304.953125 C 118.988281 306.25 122.789062 302.804688 122.789062 302.804688 C 122.789062 302.804688 109.859375 230.480469 107.273438 219.59375 Z M 107.273438 219.59375 " fill-opacity="1" fill-rule="nonzero"/><path fill="#dae4fe" d="M 78.242188 215.300781 C 78.144531 215.300781 78.050781 215.226562 78.035156 215.128906 L 76.070312 205.082031 C 76.050781 204.964844 76.125 204.855469 76.234375 204.835938 C 76.351562 204.816406 76.460938 204.890625 76.480469 205 L 78.445312 215.046875 C 78.464844 215.164062 78.390625 215.273438 78.28125 215.292969 C 78.269531 215.300781 78.261719 215.300781 78.242188 215.300781 Z M 78.242188 215.300781 " fill-opacity="1" fill-rule="nonzero"/><path fill="#dae4fe" d="M 77.265625 210.277344 C 77.238281 210.277344 77.210938 210.269531 77.183594 210.261719 C 77.027344 210.195312 73.457031 208.71875 71.9375 207.464844 C 71.847656 207.394531 71.839844 207.257812 71.910156 207.164062 C 71.984375 207.074219 72.121094 207.0625 72.214844 207.136719 C 73.683594 208.34375 77.3125 209.851562 77.347656 209.867188 C 77.457031 209.914062 77.503906 210.03125 77.46875 210.140625 C 77.429688 210.234375 77.347656 210.277344 77.265625 210.277344 Z M 77.265625 210.277344 " fill-opacity="1" fill-rule="nonzero"/><path fill="#4b6fdd" d="M 36.3125 322 C 36.3125 322 35.453125 326.941406 41.273438 327.535156 C 47.09375 328.128906 51.179688 327.808594 54.183594 327.160156 C 57.191406 326.503906 58.882812 325.5625 62.042969 325.828125 C 65.203125 326.09375 68.4375 327.40625 70.027344 325.800781 C 71.335938 324.484375 70.140625 320.886719 70.140625 320.886719 L 52.714844 320.96875 Z M 36.3125 322 " fill-opacity="1" fill-rule="nonzero"/><path fill="#192351" d="M 54.742188 311.378906 C 54.742188 311.378906 47.835938 316.304688 44.433594 317.984375 C 41.035156 319.65625 36.621094 318.496094 36.320312 322 C 36.019531 325.507812 45.613281 324.742188 51.234375 324.21875 C 56.851562 323.699219 60.792969 321.507812 63.734375 322.386719 C 66.675781 323.253906 69.945312 321.855469 70.15625 320.886719 C 70.367188 319.917969 68.949219 311.390625 68.203125 310.578125 C 68.203125 310.578125 67.789062 312.257812 62.253906 312.402344 C 56.714844 312.539062 54.742188 311.378906 54.742188 311.378906 Z M 54.742188 311.378906 " fill-opacity="1" fill-rule="nonzero"/><path fill="#ffffff" d="M 48.300781 318.503906 L 48.21875 318.558594 C 48.054688 318.660156 47.851562 318.605469 47.753906 318.441406 L 46.703125 316.660156 C 46.609375 316.496094 46.65625 316.285156 46.820312 316.191406 L 46.902344 316.136719 C 47.066406 316.039062 47.269531 316.09375 47.367188 316.257812 L 48.417969 318.039062 C 48.519531 318.191406 48.464844 318.402344 48.300781 318.503906 Z M 48.300781 318.503906 " fill-opacity="1" fill-rule="nonzero"/><path fill="#ffffff" d="M 49.871094 317.390625 L 49.789062 317.445312 C 49.625 317.542969 49.425781 317.488281 49.324219 317.324219 L 48.273438 315.542969 C 48.183594 315.378906 48.226562 315.171875 48.390625 315.078125 L 48.472656 315.023438 C 48.636719 314.925781 48.839844 314.980469 48.941406 315.144531 L 49.992188 316.921875 C 50.082031 317.089844 50.027344 317.296875 49.871094 317.390625 Z M 49.871094 317.390625 " fill-opacity="1" fill-rule="nonzero"/><path fill="#ffffff" d="M 51.699219 316.210938 L 51.617188 316.265625 C 51.453125 316.367188 51.25 316.3125 51.152344 316.148438 L 50.101562 314.367188 C 50.007812 314.203125 50.054688 313.992188 50.21875 313.902344 L 50.300781 313.847656 C 50.464844 313.746094 50.667969 313.800781 50.765625 313.964844 L 51.816406 315.746094 C 51.910156 315.910156 51.863281 316.121094 51.699219 316.210938 Z M 51.699219 316.210938 " fill-opacity="1" fill-rule="nonzero"/><path fill="#ffffff" d="M 53.507812 315.050781 L 53.425781 315.105469 C 53.261719 315.207031 53.0625 315.152344 52.960938 314.988281 L 51.910156 313.207031 C 51.816406 313.042969 51.863281 312.832031 52.027344 312.742188 L 52.109375 312.6875 C 52.273438 312.585938 52.476562 312.640625 52.578125 312.804688 L 53.628906 314.585938 C 53.71875 314.742188 53.664062 314.953125 53.507812 315.050781 Z M 53.507812 315.050781 " fill-opacity="1" fill-rule="nonzero"/><path fill="#c47249" d="M 69.316406 151.777344 C 58.71875 153.441406 40.550781 157.878906 40.550781 157.878906 C 41.265625 147.039062 42.570312 138.453125 44.179688 131.667969 C 49.898438 107.503906 61.09375 106.007812 61.09375 106.007812 L 69.378906 110.207031 L 78.984375 114.28125 C 78.984375 114.28125 79.914062 150.117188 69.316406 151.777344 Z M 69.316406 151.777344 " fill-opacity="1" fill-rule="nonzero"/><path fill="#c47249" d="M 57.417969 153.960938 C 57.417969 153.960938 62.097656 167.074219 52.941406 168.460938 C 49.597656 168.972656 33.691406 156.125 33.691406 156.125 L 44.207031 149.484375 Z M 57.417969 153.960938 " fill-opacity="1" fill-rule="nonzero"/><path fill="#4b6fdd" d="M 69.378906 110.207031 C 68.6875 119.269531 66.875 130.847656 62.179688 131.851562 C 56.351562 133.09375 48 132.199219 44.171875 131.667969 C 49.890625 107.503906 59.933594 105.816406 59.933594 105.816406 Z M 69.378906 110.207031 " fill-opacity="1" fill-rule="nonzero"/><path fill="#192351" d="M 55.738281 132.574219 C 55.738281 132.574219 55.730469 132.574219 55.738281 132.574219 C 55.664062 132.574219 55.621094 132.519531 55.621094 132.453125 C 55.621094 132.382812 56.066406 125.558594 56.988281 121.871094 C 57.007812 121.808594 57.074219 121.769531 57.128906 121.789062 C 57.191406 121.808594 57.226562 121.871094 57.210938 121.925781 C 56.285156 125.605469 55.847656 132.398438 55.847656 132.472656 C 55.847656 132.519531 55.800781 132.574219 55.738281 132.574219 Z M 55.738281 132.574219 " fill-opacity="1" fill-rule="nonzero"/><path fill="#c47249" d="M 64.234375 112.828125 C 64.273438 112.730469 73.292969 122.28125 79.175781 120.355469 C 85.753906 118.191406 88.695312 104.792969 88.695312 104.792969 L 87.65625 91.34375 L 87.644531 91.121094 L 87.628906 90.320312 L 86.332031 90.792969 L 81.167969 92.675781 L 79.09375 93.433594 L 73.792969 95.359375 C 73.792969 95.359375 73.703125 98.839844 73.042969 101.660156 C 72.972656 101.960938 72.90625 102.238281 72.835938 102.511719 C 72.6875 102.976562 72.46875 103.414062 72.222656 103.78125 C 71.65625 104.664062 70.953125 105.230469 70.953125 105.242188 C 69.617188 108.042969 64.28125 112.828125 64.234375 112.828125 Z M 64.234375 112.828125 " fill-opacity="1" fill-rule="nonzero"/><path fill="#c47249" d="M 66.238281 87.378906 C 67.898438 94.683594 70.84375 102 77.925781 100.914062 C 82.875 100.144531 87.644531 93.285156 88.714844 86.996094 C 89.261719 83.742188 89.773438 80.914062 89.765625 78.777344 C 89.757812 77.085938 89.675781 76.027344 89.675781 76.027344 L 88.460938 72.355469 L 87.738281 70.210938 C 87.738281 70.210938 86.148438 68.921875 84.367188 67.46875 C 82.144531 65.652344 78.726562 68.285156 78.671875 68.15625 C 78.582031 67.964844 68.632812 66.574219 65.507812 70.558594 C 65.496094 70.566406 65.488281 70.574219 65.488281 70.585938 C 65.203125 70.949219 64.984375 71.316406 64.847656 71.691406 C 64.730469 72 64.675781 72.320312 64.675781 72.640625 C 64.675781 73.25 64.703125 74.171875 64.738281 75.332031 C 64.765625 75.816406 64.785156 76.347656 64.820312 76.914062 C 64.875 77.863281 64.957031 78.902344 65.066406 80 C 65.285156 82.292969 65.652344 84.847656 66.238281 87.378906 Z M 66.238281 87.378906 " fill-opacity="1" fill-rule="nonzero"/><path fill="#192351" d="M 67.097656 90.730469 C 68.621094 97.40625 71.464844 101.5625 77.996094 100.914062 C 84.246094 100.300781 87.535156 93.625 88.515625 87.871094 C 87.984375 86.511719 87.4375 83.140625 87.4375 83.140625 C 87.4375 83.140625 85.835938 80.65625 85.855469 80.75 C 86.066406 81.78125 85.992188 88.832031 82.957031 89.707031 C 79.660156 90.667969 78.480469 91.515625 77.21875 91.496094 C 75.960938 91.480469 75.585938 91.039062 74.480469 91.316406 C 73.363281 91.589844 72.605469 92.171875 71.109375 91.917969 C 69.699219 91.6875 68.148438 92.683594 67.097656 90.730469 Z M 67.097656 90.730469 " fill-opacity="1" fill-rule="nonzero"/><path fill="#192351" d="M 90.09375 78.695312 C 90.09375 78.695312 91.28125 62.695312 81.953125 62.695312 C 81.953125 62.695312 74.6875 59.296875 66.65625 63.925781 C 61.375 66.96875 63.285156 73.351562 63.816406 75.5625 C 64.144531 76.949219 64.710938 78.101562 64.894531 78.027344 C 65.40625 77.816406 65.460938 76.429688 67.332031 76.859375 C 74.925781 78.59375 79.6875 72.902344 81.816406 74.144531 C 83.945312 75.386719 88.523438 87.871094 88.523438 87.871094 C 88.523438 87.871094 88.90625 81.972656 90.09375 78.695312 Z M 90.09375 78.695312 " fill-opacity="1" fill-rule="nonzero"/><path fill="#c47249" d="M 88.25 80.082031 C 88.25 80.082031 92.453125 77.070312 92.507812 81.433594 C 92.5625 85.796875 88.503906 87.882812 88.503906 87.882812 Z M 88.25 80.082031 " fill-opacity="1" fill-rule="nonzero"/><path fill="#192351" d="M 89.375 81.433594 C 89.375 81.433594 92.71875 80.253906 89.511719 85.09375 Z M 89.375 81.433594 " fill-opacity="1" fill-rule="nonzero"/><path fill="#192351" d="M 70.777344 85.234375 C 70.867188 85.546875 70.878906 85.835938 70.8125 86.097656 C 70.746094 86.355469 70.621094 86.511719 70.4375 86.566406 C 70.25 86.617188 70.0625 86.550781 69.867188 86.367188 C 69.671875 86.183594 69.53125 85.929688 69.441406 85.617188 C 69.351562 85.300781 69.339844 85.011719 69.40625 84.753906 C 69.472656 84.492188 69.597656 84.335938 69.78125 84.285156 C 69.964844 84.230469 70.152344 84.296875 70.347656 84.484375 C 70.542969 84.667969 70.683594 84.917969 70.777344 85.234375 Z M 70.777344 85.234375 " fill-opacity="1" fill-rule="nonzero"/><path fill="#192351" d="M 78.84375 83.910156 C 78.933594 84.222656 78.945312 84.511719 78.878906 84.769531 C 78.8125 85.03125 78.6875 85.1875 78.503906 85.242188 C 78.320312 85.292969 78.128906 85.226562 77.9375 85.042969 C 77.742188 84.855469 77.597656 84.605469 77.507812 84.292969 C 77.417969 83.976562 77.40625 83.6875 77.472656 83.429688 C 77.539062 83.167969 77.664062 83.011719 77.847656 82.957031 C 78.03125 82.90625 78.222656 82.972656 78.417969 83.15625 C 78.609375 83.34375 78.753906 83.59375 78.84375 83.910156 Z M 78.84375 83.910156 " fill-opacity="1" fill-rule="nonzero"/><path fill="#192351" d="M 71.109375 83.152344 C 71.109375 83.152344 69.015625 81.789062 67.359375 82.8125 Z M 71.109375 83.152344 " fill-opacity="1" fill-rule="nonzero"/><path fill="#192351" d="M 80.746094 80.8125 C 80.582031 80.804688 77.996094 80.519531 76.582031 82.265625 Z M 80.746094 80.8125 " fill-opacity="1" fill-rule="nonzero"/><path fill="#192351" d="M 74.140625 88.75 C 73.628906 88.75 73.402344 88.511719 73.300781 88.328125 C 73 87.789062 73.328125 86.949219 73.804688 86.585938 C 73.859375 86.539062 73.929688 86.558594 73.976562 86.613281 C 74.011719 86.667969 74.003906 86.738281 73.949219 86.785156 C 73.519531 87.113281 73.300781 87.824219 73.511719 88.210938 C 73.710938 88.574219 74.269531 88.601562 75.074219 88.292969 C 75.136719 88.265625 75.210938 88.300781 75.226562 88.363281 C 75.257812 88.429688 75.21875 88.5 75.15625 88.519531 C 74.734375 88.683594 74.40625 88.75 74.140625 88.75 Z M 74.140625 88.75 " fill-opacity="1" fill-rule="nonzero"/><path fill="#ffffff" d="M 73.089844 95.050781 C 73.089844 95.050781 73.191406 95.222656 73.417969 95.433594 C 73.8125 95.816406 74.578125 96.335938 75.738281 96.199219 C 76.882812 96.0625 77.605469 95.324219 77.980469 94.8125 C 78.179688 94.519531 78.28125 94.308594 78.28125 94.308594 Z M 73.089844 95.050781 " fill-opacity="1" fill-rule="nonzero"/><path fill="#4b6fdd" d="M 109.367188 111.113281 C 102.578125 124.015625 101.417969 166.574219 103.070312 189.082031 C 88.167969 192.597656 66.75 194.34375 54.058594 190.835938 C 55.894531 166.792969 52.941406 127.113281 59.933594 105.816406 C 59.933594 105.816406 67.890625 103.523438 73.117188 103.3125 C 68.714844 109.277344 85.226562 110.894531 88.714844 103.3125 C 88.714844 103.3125 105.546875 106.8125 109.367188 111.113281 Z M 109.367188 111.113281 " fill-opacity="1" fill-rule="nonzero"/><path fill="#192351" d="M 55.738281 132.574219 C 55.738281 132.574219 55.730469 132.574219 55.738281 132.574219 C 55.664062 132.574219 55.621094 132.519531 55.621094 132.453125 C 55.621094 132.382812 56.066406 125.558594 56.988281 121.871094 C 57.007812 121.808594 57.074219 121.769531 57.128906 121.789062 C 57.191406 121.808594 57.226562 121.871094 57.210938 121.925781 C 56.285156 125.605469 55.847656 132.398438 55.847656 132.472656 C 55.847656 132.519531 55.800781 132.574219 55.738281 132.574219 Z M 55.738281 132.574219 " fill-opacity="1" fill-rule="nonzero"/><path fill="#c47249" d="M 130.984375 157.277344 C 133.066406 165.578125 125.832031 169.019531 110.207031 163.195312 C 102.824219 160.445312 97.496094 159.476562 95.761719 157.914062 L 96.71875 149.347656 C 98.015625 149.742188 106.167969 149.941406 113.496094 150.902344 L 107.164062 136.902344 C 108.890625 136.765625 115.535156 135.203125 121.308594 129.851562 C 126.617188 141.433594 129.195312 150.152344 130.984375 157.277344 Z M 130.984375 157.277344 " fill-opacity="1" fill-rule="nonzero"/><path fill="#4b6fdd" d="M 108.460938 110.308594 C 108.460938 110.308594 113.265625 112.710938 117.507812 119.90625 C 121.34375 126.425781 125.210938 134.480469 124.414062 135.40625 C 119.527344 141.140625 108.242188 141.816406 108.242188 141.816406 L 103.117188 132.164062 Z M 108.460938 110.308594 " fill-opacity="1" fill-rule="nonzero"/><path fill="#192351" d="M 127.757812 155.375 C 127.722656 155.375 127.6875 155.359375 127.667969 155.332031 C 124.289062 150.664062 113.597656 151.003906 113.496094 151.011719 C 113.433594 151.011719 113.386719 150.964844 113.378906 150.902344 C 113.378906 150.835938 113.421875 150.78125 113.488281 150.78125 C 113.515625 150.78125 116.238281 150.691406 119.351562 151.175781 C 122.242188 151.632812 126.050781 152.699219 127.859375 155.195312 C 127.898438 155.25 127.886719 155.320312 127.832031 155.359375 C 127.8125 155.367188 127.785156 155.375 127.757812 155.375 Z M 127.757812 155.375 " fill-opacity="1" fill-rule="nonzero"/><path fill="#c47249" d="M 86.027344 158.382812 C 86.988281 157.75 88.15625 157.503906 92.132812 158.078125 C 94.527344 158.425781 98.355469 157.550781 99.398438 157.320312 L 99.011719 149.953125 C 97.46875 149.550781 94.957031 147.898438 93.082031 147.011719 C 90.734375 145.90625 88.15625 144.015625 86.183594 144.691406 C 82.832031 145.824219 78.847656 147.804688 79.339844 149.058594 C 79.851562 150.308594 83.800781 149.074219 83.800781 149.074219 C 83.800781 149.074219 81.769531 150.1875 82.027344 151.539062 C 82.28125 152.890625 84.0625 153.339844 84.0625 153.339844 C 83.105469 154.746094 84.832031 156.050781 84.832031 156.050781 C 84.046875 157.320312 85.261719 158.875 86.027344 158.382812 Z M 86.027344 158.382812 " fill-opacity="1" fill-rule="nonzero"/><path fill="#192351" d="M 84.839844 156.171875 C 84.804688 156.171875 84.777344 156.152344 84.75 156.125 C 84.714844 156.078125 84.714844 156.007812 84.769531 155.960938 C 84.832031 155.914062 86.265625 154.726562 88.523438 154.589844 C 88.523438 154.589844 88.523438 154.589844 88.53125 154.589844 C 88.597656 154.589844 88.640625 154.636719 88.652344 154.699219 C 88.652344 154.765625 88.605469 154.820312 88.542969 154.820312 C 86.367188 154.957031 84.933594 156.125 84.921875 156.132812 C 84.894531 156.160156 84.867188 156.171875 84.839844 156.171875 Z M 84.839844 156.171875 " fill-opacity="1" fill-rule="nonzero"/><path fill="#192351" d="M 84.074219 153.457031 C 84.035156 153.457031 84.007812 153.449219 83.992188 153.421875 C 83.945312 153.375 83.953125 153.304688 84 153.257812 C 84.074219 153.195312 85.875 151.625 88.003906 151.277344 C 88.066406 151.257812 88.121094 151.304688 88.140625 151.367188 C 88.148438 151.429688 88.101562 151.484375 88.046875 151.503906 C 85.984375 151.84375 84.175781 153.421875 84.15625 153.429688 C 84.128906 153.449219 84.101562 153.457031 84.074219 153.457031 Z M 84.074219 153.457031 " fill-opacity="1" fill-rule="nonzero"/><path fill="#192351" d="M 83.808594 149.195312 C 83.773438 149.195312 83.726562 149.175781 83.707031 149.140625 C 83.679688 149.085938 83.699219 149.011719 83.753906 148.984375 C 83.773438 148.976562 85.625 147.941406 87.847656 147.941406 C 87.921875 147.941406 88.003906 147.980469 87.992188 148.0625 C 87.992188 148.125 87.9375 148.179688 87.875 148.179688 C 87.867188 148.179688 87.847656 148.179688 87.839844 148.179688 C 85.683594 148.179688 83.882812 149.175781 83.863281 149.183594 C 83.84375 149.183594 83.828125 149.195312 83.808594 149.195312 Z M 83.808594 149.195312 " fill-opacity="1" fill-rule="nonzero"/><path fill="#192351" d="M 93.203125 159.148438 L 61.039062 159.148438 L 61.039062 156.535156 L 90.910156 156.535156 C 92.167969 156.535156 93.191406 157.558594 93.191406 158.820312 L 93.191406 159.148438 Z M 93.203125 159.148438 " fill-opacity="1" fill-rule="nonzero"/><path fill="#192351" d="M 27.660156 159.148438 L 81.488281 159.148438 L 76.070312 124.410156 L 22.242188 124.410156 Z M 27.660156 159.148438 " fill-opacity="1" fill-rule="nonzero"/><path fill="#ffffff" d="M 54.757812 142.484375 C 54.855469 143.015625 54.855469 143.546875 54.757812 144.070312 C 54.660156 144.597656 54.472656 145.082031 54.195312 145.523438 C 53.914062 145.960938 53.570312 146.324219 53.152344 146.613281 C 52.734375 146.898438 52.28125 147.085938 51.789062 147.175781 C 51.300781 147.265625 50.808594 147.25 50.316406 147.128906 C 49.828125 147.007812 49.375 146.792969 48.957031 146.480469 C 48.539062 146.167969 48.195312 145.78125 47.914062 145.324219 C 47.636719 144.867188 47.449219 144.371094 47.351562 143.839844 C 47.253906 143.304688 47.253906 142.777344 47.351562 142.25 C 47.449219 141.722656 47.636719 141.242188 47.917969 140.800781 C 48.195312 140.359375 48.542969 139.996094 48.957031 139.710938 C 49.375 139.425781 49.828125 139.234375 50.320312 139.144531 C 50.8125 139.054688 51.300781 139.070312 51.792969 139.191406 C 52.285156 139.3125 52.738281 139.53125 53.152344 139.84375 C 53.570312 140.15625 53.917969 140.542969 54.195312 141 C 54.472656 141.457031 54.660156 141.953125 54.757812 142.484375 Z M 54.757812 142.484375 " fill-opacity="1" fill-rule="nonzero"/><path fill="#c47249" d="M 36.960938 159.121094 C 36.960938 159.121094 37.410156 158.910156 37.199219 156.890625 C 36.988281 154.882812 37.609375 152.910156 39.546875 153.128906 C 39.546875 153.128906 41.199219 151.128906 42.925781 153.113281 C 42.925781 153.113281 44.929688 152.207031 46.246094 153.871094 C 46.246094 153.871094 47.898438 152.949219 48.730469 154.171875 C 49.5625 155.394531 49.972656 158.9375 48.738281 159.816406 C 47.496094 160.691406 44.324219 161.175781 41.421875 161.128906 C 38.515625 161.085938 36.960938 159.121094 36.960938 159.121094 Z M 36.960938 159.121094 " fill-opacity="1" fill-rule="nonzero"/><path fill="#192351" d="M 39.546875 158.710938 C 39.527344 158.710938 39.511719 158.699219 39.492188 158.691406 C 39.4375 158.65625 39.417969 158.589844 39.445312 158.535156 C 40.597656 156.5625 39.445312 153.195312 39.4375 153.167969 C 39.417969 153.101562 39.445312 153.039062 39.511719 153.019531 C 39.574219 153.003906 39.636719 153.03125 39.65625 153.09375 C 39.703125 153.238281 40.851562 156.601562 39.65625 158.65625 C 39.628906 158.691406 39.582031 158.710938 39.546875 158.710938 Z M 39.546875 158.710938 " fill-opacity="1" fill-rule="nonzero"/><path fill="#192351" d="M 42.925781 158.882812 C 42.910156 158.882812 42.898438 158.882812 42.882812 158.875 C 42.828125 158.847656 42.800781 158.78125 42.816406 158.71875 C 43.824219 156.417969 42.816406 153.175781 42.808594 153.140625 C 42.789062 153.074219 42.828125 153.011719 42.882812 152.992188 C 42.945312 152.976562 43.011719 153.011719 43.027344 153.066406 C 43.074219 153.203125 44.070312 156.4375 43.027344 158.808594 C 43.019531 158.855469 42.972656 158.882812 42.925781 158.882812 Z M 42.925781 158.882812 " fill-opacity="1" fill-rule="nonzero"/><path fill="#192351" d="M 45.832031 159.183594 C 45.816406 159.183594 45.789062 159.175781 45.769531 159.167969 C 45.714844 159.128906 45.707031 159.058594 45.734375 159.011719 C 46.9375 157.175781 46.136719 153.925781 46.125 153.898438 C 46.109375 153.832031 46.144531 153.769531 46.207031 153.761719 C 46.273438 153.742188 46.335938 153.777344 46.34375 153.84375 C 46.382812 153.980469 47.1875 157.222656 45.925781 159.140625 C 45.90625 159.167969 45.871094 159.183594 45.832031 159.183594 Z M 45.832031 159.183594 " fill-opacity="1" fill-rule="nonzero"/><path fill="#192351" d="M 308.050781 230.910156 L 145.3125 230.910156 C 142.261719 230.910156 140.242188 228.261719 140.808594 224.992188 L 168.550781 63.023438 C 169.050781 60.09375 171.828125 57.488281 174.761719 57.1875 L 330.328125 41.589844 C 333.828125 41.242188 336.375 43.535156 336 46.730469 L 315.480469 224.378906 C 315.058594 227.984375 311.722656 230.910156 308.050781 230.910156 Z M 308.050781 230.910156 " fill-opacity="1" fill-rule="nonzero"/><path fill="#ffffff" d="M 303.746094 226.617188 L 141.007812 226.617188 C 137.957031 226.617188 135.9375 223.96875 136.503906 220.699219 L 164.246094 58.730469 C 164.746094 55.800781 167.527344 53.195312 170.457031 52.894531 L 326.023438 37.296875 C 329.523438 36.949219 332.074219 39.242188 331.699219 42.4375 L 311.175781 220.085938 C 310.765625 223.695312 307.429688 226.617188 303.746094 226.617188 Z M 303.746094 226.617188 " fill-opacity="1" fill-rule="nonzero"/><path fill="#dae4fe" d="M 302.230469 217.601562 L 144.5625 218.371094 L 168.605469 75.964844 L 320.578125 62.730469 Z M 302.230469 217.601562 " fill-opacity="1" fill-rule="nonzero"/><path fill="#4b6fdd" d="M 176.433594 63.378906 C 176.207031 64.75 174.910156 65.953125 173.539062 66.082031 C 172.167969 66.210938 171.253906 65.207031 171.480469 63.84375 C 171.710938 62.484375 173 61.277344 174.371094 61.140625 C 175.730469 61.015625 176.652344 62.007812 176.433594 63.378906 Z M 176.433594 63.378906 " fill-opacity="1" fill-rule="nonzero"/><path fill="#4b6fdd" d="M 193.777344 61.746094 C 193.558594 63.125 192.242188 64.347656 190.84375 64.476562 C 189.445312 64.601562 188.503906 63.589844 188.722656 62.21875 C 188.945312 60.851562 190.257812 59.625 191.648438 59.488281 C 193.046875 59.359375 193.996094 60.367188 193.777344 61.746094 Z M 193.777344 61.746094 " fill-opacity="1" fill-rule="nonzero"/><path fill="#4b6fdd" d="M 185.058594 62.566406 C 184.832031 63.9375 183.535156 65.160156 182.144531 65.289062 C 180.765625 65.414062 179.832031 64.410156 180.0625 63.042969 C 180.289062 61.671875 181.589844 60.457031 182.96875 60.328125 C 184.347656 60.191406 185.289062 61.195312 185.058594 62.566406 Z M 185.058594 62.566406 " fill-opacity="1" fill-rule="nonzero"/><path fill="#4b6fdd" d="M 274.761719 189.410156 L 175.796875 191.410156 L 178.34375 175.484375 L 276.917969 172.589844 Z M 274.761719 189.410156 " fill-opacity="1" fill-rule="nonzero"/><path fill="#ffffff" d="M 214.347656 177.769531 L 213.660156 184.261719 L 216.136719 184.261719 L 215.953125 186.015625 L 211.265625 186.015625 L 212.132812 177.769531 Z M 214.347656 177.769531 " fill-opacity="1" fill-rule="nonzero"/><path fill="#ffffff" d="M 220.625 186.097656 C 218.367188 186.097656 216.722656 184.34375 216.976562 181.859375 C 217.242188 179.375 219.253906 177.640625 221.507812 177.640625 C 223.777344 177.640625 225.402344 179.386719 225.144531 181.859375 C 224.882812 184.34375 222.878906 186.097656 220.625 186.097656 Z M 220.851562 183.96875 C 221.992188 183.96875 222.769531 183.136719 222.898438 181.867188 C 223.035156 180.570312 222.433594 179.75 221.289062 179.75 C 220.140625 179.75 219.371094 180.570312 219.234375 181.867188 C 219.105469 183.136719 219.691406 183.96875 220.851562 183.96875 Z M 220.851562 183.96875 " fill-opacity="1" fill-rule="nonzero"/><path fill="#ffffff" d="M 233.753906 180.480469 L 231.367188 180.480469 C 231.167969 180.050781 230.738281 179.804688 230.125 179.804688 C 229.011719 179.804688 228.242188 180.609375 228.117188 181.878906 C 227.96875 183.292969 228.589844 184.050781 229.898438 184.050781 C 230.664062 184.050781 231.269531 183.675781 231.671875 182.964844 L 229.449219 182.964844 L 229.625 181.3125 L 233.753906 181.3125 L 233.515625 183.53125 C 232.914062 184.734375 231.542969 186.070312 229.46875 186.070312 C 227.027344 186.070312 225.601562 184.335938 225.867188 181.867188 C 226.125 179.414062 227.898438 177.675781 230.335938 177.675781 C 232.355469 177.6875 233.617188 178.765625 233.753906 180.480469 Z M 233.753906 180.480469 " fill-opacity="1" fill-rule="nonzero"/><path fill="#ffffff" d="M 235.125 177.769531 L 237.335938 177.769531 L 236.46875 186.015625 L 234.257812 186.015625 Z M 235.125 177.769531 " fill-opacity="1" fill-rule="nonzero"/><path fill="#ffffff" d="M 245.980469 177.769531 L 245.113281 186.015625 L 242.898438 186.015625 L 240.433594 181.402344 L 239.949219 186.015625 L 237.738281 186.015625 L 238.605469 177.769531 L 240.816406 177.769531 L 243.273438 182.433594 L 243.769531 177.769531 Z M 245.980469 177.769531 " fill-opacity="1" fill-rule="nonzero"/><path fill="#ffffff" d="M 255.964844 99.113281 C 254.570312 109.386719 244.828125 118.28125 234.320312 118.910156 C 223.929688 119.53125 216.820312 111.824219 218.3125 101.753906 C 219.792969 91.753906 229.238281 83.03125 239.527344 82.199219 C 249.9375 81.371094 257.347656 88.914062 255.964844 99.113281 Z M 255.964844 99.113281 " fill-opacity="1" fill-rule="nonzero"/><path fill="#192351" d="M 233.140625 119.285156 C 228.480469 119.285156 224.398438 117.613281 221.546875 114.5 C 218.511719 111.195312 217.242188 106.648438 217.972656 101.707031 C 219.472656 91.605469 229.121094 82.710938 239.492188 81.882812 C 244.738281 81.460938 249.351562 83.078125 252.539062 86.4375 C 255.628906 89.699219 256.953125 94.210938 256.285156 99.160156 C 254.871094 109.597656 245.019531 118.601562 234.328125 119.25 C 233.9375 119.269531 233.535156 119.285156 233.140625 119.285156 Z M 241.101562 82.476562 C 240.589844 82.476562 240.078125 82.492188 239.546875 82.539062 C 229.46875 83.351562 220.074219 91.992188 218.621094 101.808594 C 217.917969 106.546875 219.132812 110.894531 222.03125 114.0625 C 224.980469 117.285156 229.347656 118.894531 234.292969 118.59375 C 244.683594 117.972656 254.257812 109.214844 255.628906 99.078125 C 256.269531 94.335938 255.007812 90.007812 252.054688 86.894531 C 249.34375 84.019531 245.484375 82.476562 241.101562 82.476562 Z M 241.101562 82.476562 " fill-opacity="1" fill-rule="nonzero"/><path fill="#192351" d="M 243.769531 95.398438 C 243.292969 98.710938 240.140625 101.605469 236.730469 101.835938 C 233.34375 102.070312 230.992188 99.578125 231.476562 96.28125 C 231.960938 92.996094 235.085938 90.128906 238.46875 89.871094 C 241.859375 89.617188 244.242188 92.089844 243.769531 95.398438 Z M 243.769531 95.398438 " fill-opacity="1" fill-rule="nonzero"/><path fill="#192351" d="M 245.578125 110.445312 L 225.320312 111.753906 L 226.070312 106.675781 C 226.316406 105.011719 227.878906 103.578125 229.570312 103.460938 L 243.605469 102.492188 C 245.320312 102.375 246.527344 103.632812 246.289062 105.3125 Z M 245.578125 110.445312 " fill-opacity="1" fill-rule="nonzero"/><path fill="#ffffff" d="M 277.953125 158.535156 L 181.1875 162.117188 L 183.289062 148.9375 L 279.742188 144.644531 Z M 277.953125 158.535156 " fill-opacity="1" fill-rule="nonzero"/><path fill="#192351" d="M 217.167969 153.804688 L 216.300781 155.140625 L 214.335938 155.140625 L 216.328125 152.390625 L 214.820312 149.84375 L 216.832031 149.84375 L 217.609375 151.175781 L 218.484375 149.84375 L 220.449219 149.84375 L 218.421875 152.546875 L 219.957031 155.148438 L 217.945312 155.148438 Z M 217.167969 153.804688 " fill-opacity="1" fill-rule="nonzero"/><path fill="#192351" d="M 222.898438 153.804688 L 222.03125 155.140625 L 220.066406 155.140625 L 222.058594 152.390625 L 220.550781 149.84375 L 222.558594 149.84375 L 223.335938 151.175781 L 224.214844 149.84375 L 226.179688 149.84375 L 224.148438 152.546875 L 225.683594 155.148438 L 223.675781 155.148438 Z M 222.898438 153.804688 " fill-opacity="1" fill-rule="nonzero"/><path fill="#192351" d="M 228.628906 153.804688 L 227.757812 155.140625 L 225.796875 155.140625 L 227.785156 152.390625 L 226.277344 149.84375 L 228.289062 149.84375 L 229.066406 151.175781 L 229.941406 149.84375 L 231.90625 149.84375 L 229.878906 152.546875 L 231.414062 155.148438 L 229.402344 155.148438 Z M 228.628906 153.804688 " fill-opacity="1" fill-rule="nonzero"/><path fill="#192351" d="M 234.355469 153.804688 L 233.488281 155.140625 L 231.523438 155.140625 L 233.515625 152.390625 L 232.007812 149.84375 L 234.019531 149.84375 L 234.796875 151.175781 L 235.671875 149.84375 L 237.636719 149.84375 L 235.609375 152.546875 L 237.144531 155.148438 L 235.132812 155.148438 Z M 234.355469 153.804688 " fill-opacity="1" fill-rule="nonzero"/><path fill="#192351" d="M 240.085938 153.804688 L 239.21875 155.140625 L 237.253906 155.140625 L 239.246094 152.390625 L 237.738281 149.84375 L 239.746094 149.84375 L 240.523438 151.175781 L 241.402344 149.84375 L 243.367188 149.84375 L 241.335938 152.546875 L 242.871094 155.148438 L 240.863281 155.148438 Z M 240.085938 153.804688 " fill-opacity="1" fill-rule="nonzero"/><path fill="#192351" d="M 245.816406 153.804688 L 244.945312 155.140625 L 242.984375 155.140625 L 244.972656 152.390625 L 243.464844 149.84375 L 245.476562 149.84375 L 246.253906 151.175781 L 247.128906 149.84375 L 249.09375 149.84375 L 247.066406 152.546875 L 248.601562 155.148438 L 246.589844 155.148438 Z M 245.816406 153.804688 " fill-opacity="1" fill-rule="nonzero"/><path fill="#ffffff" d="M 280.582031 138.054688 L 184.292969 142.683594 L 186.375 129.679688 L 282.347656 124.355469 Z M 280.582031 138.054688 " fill-opacity="1" fill-rule="nonzero"/><path fill="#dae4fe" d="M 255.730469 133.460938 L 208.84375 135.859375 L 209.128906 134.027344 L 255.984375 131.578125 Z M 255.730469 133.460938 " fill-opacity="1" fill-rule="nonzero"/><path fill="#192351" d="M 328.351562 201.214844 C 329.050781 201.929688 329.707031 202.679688 330.324219 203.464844 C 330.941406 204.246094 331.519531 205.0625 332.054688 205.90625 C 332.589844 206.75 333.082031 207.621094 333.527344 208.519531 C 333.972656 209.417969 334.375 210.339844 334.726562 211.28125 C 335.082031 212.222656 335.386719 213.183594 335.644531 214.160156 C 335.902344 215.136719 336.109375 216.128906 336.265625 217.132812 C 336.425781 218.132812 336.535156 219.144531 336.59375 220.164062 C 336.648438 221.183594 336.65625 222.207031 336.613281 223.234375 C 336.574219 224.257812 336.480469 225.28125 336.335938 226.304688 C 336.191406 227.328125 336 228.34375 335.757812 229.351562 C 335.515625 230.359375 335.226562 231.355469 334.886719 232.34375 C 334.546875 233.328125 334.160156 234.296875 333.726562 235.25 C 333.296875 236.203125 332.820312 237.136719 332.296875 238.046875 C 331.773438 238.957031 331.210938 239.84375 330.605469 240.703125 C 330 241.566406 329.351562 242.394531 328.667969 243.199219 C 327.984375 244 327.261719 244.769531 326.507812 245.503906 C 325.75 246.238281 324.960938 246.9375 324.140625 247.597656 C 323.320312 248.261719 322.46875 248.882812 321.59375 249.464844 C 320.714844 250.046875 319.8125 250.582031 318.886719 251.078125 C 317.960938 251.574219 317.015625 252.027344 316.050781 252.433594 C 315.085938 252.835938 314.105469 253.195312 313.109375 253.507812 C 312.113281 253.820312 311.109375 254.082031 310.09375 254.292969 C 309.078125 254.507812 308.058594 254.671875 307.03125 254.789062 C 306.003906 254.902344 304.976562 254.964844 303.949219 254.980469 C 302.921875 254.996094 301.902344 254.957031 300.882812 254.871094 C 299.863281 254.785156 298.855469 254.648438 297.855469 254.464844 C 296.859375 254.277344 295.875 254.042969 294.902344 253.757812 C 293.933594 253.472656 292.980469 253.140625 292.050781 252.761719 C 291.117188 252.382812 290.207031 251.957031 289.320312 251.484375 C 288.4375 251.015625 287.578125 250.5 286.746094 249.941406 C 285.917969 249.382812 285.117188 248.785156 284.351562 248.144531 C 283.585938 247.503906 282.855469 246.828125 282.15625 246.113281 C 281.460938 245.398438 280.804688 244.648438 280.1875 243.863281 C 279.566406 243.078125 278.992188 242.265625 278.457031 241.421875 C 277.921875 240.574219 277.429688 239.703125 276.984375 238.804688 C 276.539062 237.90625 276.136719 236.988281 275.785156 236.046875 C 275.429688 235.105469 275.125 234.144531 274.867188 233.167969 C 274.609375 232.1875 274.402344 231.199219 274.242188 230.195312 C 274.085938 229.191406 273.976562 228.179688 273.917969 227.160156 C 273.859375 226.140625 273.851562 225.121094 273.894531 224.09375 C 273.9375 223.066406 274.03125 222.042969 274.175781 221.023438 C 274.316406 220 274.511719 218.984375 274.753906 217.976562 C 274.996094 216.96875 275.285156 215.96875 275.625 214.984375 C 275.964844 214 276.351562 213.03125 276.78125 212.078125 C 277.214844 211.125 277.691406 210.191406 278.214844 209.28125 C 278.734375 208.371094 279.300781 207.484375 279.90625 206.621094 C 280.511719 205.761719 281.15625 204.929688 281.84375 204.128906 C 282.527344 203.328125 283.246094 202.558594 284.003906 201.824219 C 284.761719 201.089844 285.550781 200.390625 286.371094 199.726562 C 287.191406 199.066406 288.039062 198.445312 288.917969 197.863281 C 289.796875 197.28125 290.699219 196.742188 291.625 196.246094 C 292.550781 195.75 293.496094 195.300781 294.460938 194.894531 C 295.425781 194.488281 296.40625 194.132812 297.402344 193.820312 C 298.394531 193.507812 299.402344 193.246094 300.417969 193.03125 C 301.433594 192.816406 302.453125 192.652344 303.480469 192.539062 C 304.507812 192.425781 305.535156 192.359375 306.5625 192.347656 C 307.585938 192.332031 308.609375 192.367188 309.628906 192.453125 C 310.644531 192.542969 311.65625 192.679688 312.652344 192.863281 C 313.652344 193.050781 314.636719 193.285156 315.609375 193.570312 C 316.578125 193.855469 317.53125 194.1875 318.460938 194.566406 C 319.394531 194.945312 320.304688 195.371094 321.1875 195.839844 C 322.074219 196.3125 322.933594 196.828125 323.761719 197.386719 C 324.59375 197.941406 325.390625 198.542969 326.160156 199.183594 C 326.925781 199.820312 327.65625 200.5 328.351562 201.214844 Z M 328.351562 201.214844 " fill-opacity="1" fill-rule="nonzero"/><path fill="#ffffff" d="M 324.175781 198.867188 C 324.871094 199.582031 325.527344 200.332031 326.148438 201.117188 C 326.765625 201.898438 327.34375 202.714844 327.878906 203.558594 C 328.414062 204.402344 328.902344 205.273438 329.351562 206.171875 C 329.796875 207.070312 330.195312 207.992188 330.550781 208.933594 C 330.902344 209.875 331.210938 210.835938 331.464844 211.8125 C 331.722656 212.789062 331.933594 213.78125 332.089844 214.785156 C 332.25 215.785156 332.355469 216.796875 332.414062 217.816406 C 332.472656 218.835938 332.480469 219.859375 332.4375 220.886719 C 332.394531 221.910156 332.300781 222.933594 332.160156 223.957031 C 332.015625 224.980469 331.824219 225.996094 331.582031 227.003906 C 331.339844 228.011719 331.046875 229.007812 330.707031 229.996094 C 330.371094 230.980469 329.984375 231.949219 329.550781 232.902344 C 329.117188 233.855469 328.640625 234.789062 328.121094 235.699219 C 327.597656 236.609375 327.035156 237.496094 326.429688 238.355469 C 325.820312 239.21875 325.175781 240.046875 324.492188 240.851562 C 323.808594 241.652344 323.085938 242.421875 322.332031 243.15625 C 321.574219 243.890625 320.785156 244.589844 319.964844 245.25 C 319.144531 245.914062 318.292969 246.535156 317.414062 247.117188 C 316.539062 247.695312 315.636719 248.234375 314.710938 248.730469 C 313.785156 249.226562 312.839844 249.679688 311.875 250.085938 C 310.910156 250.488281 309.929688 250.847656 308.933594 251.160156 C 307.9375 251.46875 306.933594 251.734375 305.917969 251.945312 C 304.902344 252.160156 303.878906 252.324219 302.851562 252.441406 C 301.828125 252.554688 300.800781 252.617188 299.773438 252.632812 C 298.746094 252.648438 297.722656 252.609375 296.707031 252.523438 C 295.6875 252.4375 294.679688 252.300781 293.679688 252.113281 C 292.679688 251.929688 291.695312 251.695312 290.726562 251.410156 C 289.757812 251.125 288.804688 250.792969 287.871094 250.414062 C 286.9375 250.035156 286.03125 249.609375 285.144531 249.136719 C 284.257812 248.667969 283.402344 248.152344 282.570312 247.59375 C 281.742188 247.035156 280.941406 246.4375 280.175781 245.796875 C 279.410156 245.15625 278.675781 244.480469 277.980469 243.765625 C 277.285156 243.050781 276.628906 242.300781 276.007812 241.515625 C 275.390625 240.730469 274.8125 239.917969 274.277344 239.074219 C 273.742188 238.226562 273.253906 237.355469 272.804688 236.457031 C 272.359375 235.558594 271.960938 234.640625 271.605469 233.699219 C 271.253906 232.753906 270.949219 231.796875 270.691406 230.820312 C 270.433594 229.839844 270.226562 228.851562 270.066406 227.847656 C 269.910156 226.84375 269.800781 225.832031 269.742188 224.8125 C 269.683594 223.792969 269.675781 222.773438 269.71875 221.746094 C 269.761719 220.71875 269.855469 219.695312 269.996094 218.675781 C 270.140625 217.652344 270.332031 216.636719 270.574219 215.628906 C 270.820312 214.621094 271.109375 213.621094 271.449219 212.636719 C 271.789062 211.652344 272.171875 210.683594 272.605469 209.730469 C 273.039062 208.777344 273.515625 207.84375 274.035156 206.933594 C 274.558594 206.019531 275.121094 205.136719 275.730469 204.273438 C 276.335938 203.414062 276.980469 202.582031 277.664062 201.78125 C 278.351562 200.980469 279.070312 200.210938 279.828125 199.476562 C 280.582031 198.738281 281.371094 198.042969 282.191406 197.378906 C 283.015625 196.71875 283.863281 196.097656 284.742188 195.515625 C 285.617188 194.933594 286.519531 194.394531 287.445312 193.898438 C 288.371094 193.402344 289.316406 192.953125 290.285156 192.546875 C 291.25 192.140625 292.230469 191.78125 293.222656 191.472656 C 294.21875 191.160156 295.226562 190.898438 296.242188 190.683594 C 297.257812 190.46875 298.277344 190.304688 299.304688 190.191406 C 300.328125 190.078125 301.355469 190.011719 302.382812 190 C 303.410156 189.984375 304.433594 190.019531 305.449219 190.105469 C 306.46875 190.195312 307.476562 190.328125 308.476562 190.515625 C 309.476562 190.703125 310.460938 190.9375 311.429688 191.222656 C 312.402344 191.507812 313.351562 191.839844 314.285156 192.21875 C 315.21875 192.597656 316.125 193.023438 317.011719 193.492188 C 317.898438 193.964844 318.757812 194.480469 319.585938 195.035156 C 320.417969 195.59375 321.214844 196.195312 321.980469 196.832031 C 322.75 197.472656 323.480469 198.152344 324.175781 198.867188 Z M 324.175781 198.867188 " fill-opacity="1" fill-rule="nonzero"/><path fill="#192351" d="M 299.324219 253.152344 C 290.816406 253.152344 282.996094 249.847656 277.3125 243.832031 C 271.609375 237.804688 268.730469 229.792969 269.207031 221.273438 C 270.183594 203.730469 285.261719 189.457031 302.8125 189.457031 C 311.320312 189.457031 319.144531 192.761719 324.828125 198.78125 C 330.527344 204.808594 333.40625 212.816406 332.929688 221.335938 C 331.953125 238.878906 316.875 253.152344 299.324219 253.152344 Z M 302.8125 190.507812 C 285.808594 190.507812 271.199219 204.332031 270.257812 221.335938 C 269.800781 229.566406 272.578125 237.300781 278.078125 243.109375 C 283.570312 248.90625 291.117188 252.105469 299.332031 252.105469 C 316.335938 252.105469 330.949219 238.277344 331.890625 221.28125 C 332.347656 213.054688 329.570312 205.320312 324.066406 199.511719 C 318.578125 193.703125 311.027344 190.507812 302.8125 190.507812 Z M 302.8125 190.507812 " fill-opacity="1" fill-rule="nonzero"/><path fill="#4b6fdd" d="M 285.699219 215.382812 L 285.335938 214.625 L 301.917969 206.03125 L 302.109375 206.140625 L 317.542969 214.625 L 317.097656 215.382812 L 301.863281 207.019531 Z M 285.699219 215.382812 " fill-opacity="1" fill-rule="nonzero"/><path fill="#4b6fdd" d="M 313.128906 215 L 311.933594 236.550781 L 315.660156 236.550781 L 316.859375 215 Z M 316.265625 217.027344 L 315.285156 234.550781 L 314.773438 234.550781 L 315.753906 217.027344 Z M 315.140625 217.027344 L 314.164062 234.550781 L 313.652344 234.550781 L 314.628906 217.027344 Z M 314.015625 217.027344 L 313.039062 234.550781 L 312.527344 234.550781 L 313.503906 217.027344 Z M 314.015625 217.027344 " fill-opacity="1" fill-rule="nonzero"/><path fill="#4b6fdd" d="M 317.261719 216.070312 L 312.617188 216.070312 L 312.683594 215 L 317.316406 215 Z M 317.261719 216.070312 " fill-opacity="1" fill-rule="nonzero"/><path fill="#4b6fdd" d="M 316.117188 236.578125 L 311.476562 236.578125 L 311.539062 235.519531 L 316.171875 235.519531 Z M 316.117188 236.578125 " fill-opacity="1" fill-rule="nonzero"/><path fill="#4b6fdd" d="M 307.089844 215 L 305.894531 236.550781 L 309.621094 236.550781 L 310.820312 215 Z M 310.234375 217.027344 L 309.257812 234.550781 L 308.746094 234.550781 L 309.722656 217.027344 Z M 309.101562 217.027344 L 308.125 234.550781 L 307.613281 234.550781 L 308.589844 217.027344 Z M 307.976562 217.027344 L 307 234.550781 L 306.488281 234.550781 L 307.464844 217.027344 Z M 307.976562 217.027344 " fill-opacity="1" fill-rule="nonzero"/><path fill="#4b6fdd" d="M 311.222656 216.070312 L 306.578125 216.070312 L 306.644531 215 L 311.277344 215 Z M 311.222656 216.070312 " fill-opacity="1" fill-rule="nonzero"/><path fill="#4b6fdd" d="M 310.078125 236.578125 L 305.4375 236.578125 L 305.5 235.519531 L 310.132812 235.519531 Z M 310.078125 236.578125 " fill-opacity="1" fill-rule="nonzero"/><path fill="#4b6fdd" d="M 292.855469 215 L 291.65625 236.550781 L 295.386719 236.550781 L 296.582031 215 Z M 295.988281 217.027344 L 295.011719 234.550781 L 294.5 234.550781 L 295.476562 217.027344 Z M 294.863281 217.027344 L 293.886719 234.550781 L 293.375 234.550781 L 294.351562 217.027344 Z M 293.742188 217.027344 L 292.761719 234.550781 L 292.25 234.550781 L 293.230469 217.027344 Z M 293.742188 217.027344 " fill-opacity="1" fill-rule="nonzero"/><path fill="#4b6fdd" d="M 296.976562 216.070312 L 292.34375 216.070312 L 292.398438 215 L 297.039062 215 Z M 296.976562 216.070312 " fill-opacity="1" fill-rule="nonzero"/><path fill="#4b6fdd" d="M 295.832031 236.578125 L 291.199219 236.578125 L 291.253906 235.519531 L 295.898438 235.519531 Z M 295.832031 236.578125 " fill-opacity="1" fill-rule="nonzero"/><path fill="#4b6fdd" d="M 286.816406 215 L 285.617188 236.550781 L 289.347656 236.550781 L 290.542969 215 Z M 288.824219 217.027344 L 287.847656 234.550781 L 287.335938 234.550781 L 288.3125 217.027344 Z M 287.699219 217.027344 L 286.722656 234.550781 L 286.210938 234.550781 L 287.1875 217.027344 Z M 287.699219 217.027344 " fill-opacity="1" fill-rule="nonzero"/><path fill="#4b6fdd" d="M 290.9375 216.070312 L 286.304688 216.070312 L 286.359375 215 L 291 215 Z M 290.9375 216.070312 " fill-opacity="1" fill-rule="nonzero"/><path fill="#4b6fdd" d="M 289.792969 236.578125 L 285.160156 236.578125 L 285.214844 235.519531 L 289.859375 235.519531 Z M 289.792969 236.578125 " fill-opacity="1" fill-rule="nonzero"/><path fill="#4b6fdd" d="M 303.753906 226.207031 L 303.1875 236.40625 C 303.1875 236.488281 303.117188 236.550781 303.035156 236.550781 L 302.496094 236.550781 C 302.558594 236.550781 302.613281 236.496094 302.613281 236.433594 L 303.179688 226.269531 C 303.242188 225.0625 302.320312 224.085938 301.113281 224.085938 C 299.910156 224.085938 298.875 225.0625 298.804688 226.269531 L 298.238281 236.433594 C 298.238281 236.496094 298.28125 236.550781 298.347656 236.550781 L 297.808594 236.550781 C 297.726562 236.550781 297.671875 236.488281 297.671875 236.40625 L 298.238281 226.207031 C 298.320312 224.6875 299.625 223.457031 301.140625 223.457031 C 302.660156 223.457031 303.835938 224.6875 303.753906 226.207031 Z M 303.753906 226.207031 " fill-opacity="1" fill-rule="nonzero"/><path fill="#4b6fdd" d="M 301.535156 216.570312 C 300.019531 216.570312 298.710938 217.804688 298.628906 219.320312 L 298.539062 220.980469 C 298.539062 221.0625 298.59375 221.128906 298.675781 221.128906 L 303.890625 221.128906 C 303.976562 221.128906 304.039062 221.0625 304.046875 220.980469 L 304.140625 219.320312 C 304.222656 217.804688 303.050781 216.570312 301.535156 216.570312 Z M 301.535156 216.570312 " fill-opacity="1" fill-rule="nonzero"/><path fill="#4b6fdd" d="M 306.671875 222.617188 L 296.164062 222.617188 L 296.179688 222.195312 L 306.699219 222.195312 Z M 306.671875 222.617188 " fill-opacity="1" fill-rule="nonzero"/><path fill="#4b6fdd" d="M 317.488281 215.492188 L 285.289062 215.492188 C 285.03125 215.492188 284.839844 215.292969 284.859375 215.035156 L 284.859375 215.007812 C 284.878906 214.753906 285.085938 214.550781 285.34375 214.550781 L 317.542969 214.550781 C 317.800781 214.550781 317.992188 214.753906 317.972656 215.007812 L 317.972656 215.035156 C 317.953125 215.292969 317.746094 215.492188 317.488281 215.492188 Z M 317.488281 215.492188 " fill-opacity="1" fill-rule="nonzero"/><path fill="#4b6fdd" d="M 301.488281 212.828125 C 300.941406 212.773438 300.546875 212.460938 300.566406 211.921875 L 301.304688 211.933594 C 301.316406 212.105469 301.390625 212.214844 301.527344 212.261719 L 301.570312 211.59375 C 301.140625 211.476562 300.601562 211.339844 300.648438 210.671875 C 300.683594 210.140625 301.132812 209.832031 301.691406 209.804688 L 301.707031 209.457031 L 301.972656 209.457031 L 301.957031 209.804688 C 302.511719 209.859375 302.851562 210.160156 302.851562 210.691406 L 302.101562 210.679688 C 302.09375 210.523438 302.027344 210.425781 301.910156 210.378906 L 301.863281 211.035156 C 302.292969 211.164062 302.839844 211.292969 302.804688 211.949219 C 302.777344 212.40625 302.394531 212.808594 301.746094 212.828125 L 301.726562 213.171875 L 301.460938 213.171875 Z M 301.609375 210.945312 L 301.644531 210.359375 C 301.488281 210.386719 301.390625 210.480469 301.378906 210.644531 C 301.378906 210.789062 301.472656 210.882812 301.609375 210.945312 Z M 301.828125 211.675781 L 301.789062 212.277344 C 301.957031 212.25 302.066406 212.140625 302.074219 211.976562 C 302.082031 211.820312 301.984375 211.738281 301.828125 211.675781 Z M 301.828125 211.675781 " fill-opacity="1" fill-rule="nonzero"/><path fill="#192351" d="M 164.070312 30.429688 C 164.070312 30.429688 153.71875 38.859375 134.082031 38.328125 L 134.082031 71.316406 C 134.082031 71.316406 147.488281 102.355469 164.089844 102.355469 C 180.691406 102.355469 194.0625 71.316406 194.0625 71.316406 L 194.0625 38.328125 C 174.425781 38.859375 164.070312 30.429688 164.070312 30.429688 Z M 164.070312 30.429688 " fill-opacity="1" fill-rule="nonzero"/><path fill="#4b6fdd" d="M 191.292969 41.144531 L 191.292969 70.675781 C 190.351562 72.722656 187.273438 79.140625 182.859375 85.453125 C 178.28125 91.992188 171.308594 99.78125 164.082031 99.78125 L 164.0625 99.78125 C 156.84375 99.769531 149.863281 91.980469 145.285156 85.441406 C 140.863281 79.140625 137.773438 72.722656 136.84375 70.667969 L 136.84375 41.132812 C 150.824219 40.757812 160.03125 36.238281 164.0625 33.765625 C 168.101562 36.246094 177.3125 40.769531 191.292969 41.144531 Z M 191.292969 41.144531 " fill-opacity="1" fill-rule="nonzero"/><path fill="#192351" d="M 191.292969 41.144531 L 191.292969 70.675781 C 190.351562 72.722656 187.273438 79.140625 182.859375 85.453125 C 178.28125 91.992188 171.308594 99.78125 164.082031 99.78125 L 164.0625 99.78125 L 164.0625 33.765625 C 168.101562 36.246094 177.3125 40.769531 191.292969 41.144531 Z M 191.292969 41.144531 " fill-opacity="0.2" fill-rule="nonzero"/><path fill="#ffffff" d="M 155.015625 73.835938 L 150.15625 63.070312 C 149.660156 61.980469 150.144531 60.703125 151.234375 60.21875 C 152.320312 59.734375 153.601562 60.210938 154.085938 61.296875 L 157.027344 67.828125 L 178.015625 56.394531 C 179.058594 55.816406 180.371094 56.210938 180.9375 57.25 C 181.503906 58.300781 181.121094 59.609375 180.082031 60.175781 Z M 155.015625 73.835938 " fill-opacity="1" fill-rule="nonzero"/><g clip-path="url(#768ca82b62)"><path fill="#192351" d="M 0.0351562 326.039062 L 360.34375 326.039062 L 360.34375 329.617188 L 0.0351562 329.617188 Z M 0.0351562 326.039062 " fill-opacity="1" fill-rule="nonzero"/></g><path fill="#4b6fdd" d="M 204.3125 274.6875 L 204.3125 284.660156 C 204.3125 285.5625 203.574219 286.292969 202.660156 286.292969 L 152.648438 286.292969 C 151.746094 286.292969 151.003906 285.554688 151.003906 284.660156 L 151.003906 274.6875 C 151.003906 273.785156 151.746094 273.054688 152.648438 273.054688 L 202.660156 273.054688 C 203.574219 273.054688 204.3125 273.792969 204.3125 274.6875 Z M 204.3125 274.6875 " fill-opacity="1" fill-rule="nonzero"/><path fill="#192351" d="M 204.3125 283.773438 L 204.3125 284.660156 C 204.3125 285.5625 203.574219 286.292969 202.660156 286.292969 L 152.648438 286.292969 C 151.746094 286.292969 151.003906 285.554688 151.003906 284.660156 L 151.003906 283.773438 Z M 204.3125 283.773438 " fill-opacity="1" fill-rule="nonzero"/><path fill="#192351" d="M 156.699219 282.640625 C 156.503906 282.640625 156.359375 282.488281 156.359375 282.304688 L 156.359375 276.460938 C 156.359375 276.269531 156.515625 276.121094 156.699219 276.121094 C 156.878906 276.121094 157.035156 276.277344 157.035156 276.460938 L 157.035156 282.304688 C 157.046875 282.488281 156.890625 282.640625 156.699219 282.640625 Z M 156.699219 282.640625 " fill-opacity="1" fill-rule="nonzero"/><path fill="#192351" d="M 163.6875 282.640625 C 163.496094 282.640625 163.351562 282.488281 163.351562 282.304688 L 163.351562 276.460938 C 163.351562 276.269531 163.503906 276.121094 163.6875 276.121094 C 163.871094 276.121094 164.027344 276.277344 164.027344 276.460938 L 164.027344 282.304688 C 164.027344 282.488281 163.878906 282.640625 163.6875 282.640625 Z M 163.6875 282.640625 " fill-opacity="1" fill-rule="nonzero"/><path fill="#192351" d="M 170.679688 282.640625 C 170.484375 282.640625 170.339844 282.488281 170.339844 282.304688 L 170.339844 276.460938 C 170.339844 276.269531 170.496094 276.121094 170.679688 276.121094 C 170.859375 276.121094 171.015625 276.277344 171.015625 276.460938 L 171.015625 282.304688 C 171.015625 282.488281 170.859375 282.640625 170.679688 282.640625 Z M 170.679688 282.640625 " fill-opacity="1" fill-rule="nonzero"/><path fill="#192351" d="M 177.660156 282.640625 C 177.46875 282.640625 177.320312 282.488281 177.320312 282.304688 L 177.320312 276.460938 C 177.320312 276.269531 177.476562 276.121094 177.660156 276.121094 C 177.839844 276.121094 177.996094 276.277344 177.996094 276.460938 L 177.996094 282.304688 C 178.007812 282.488281 177.851562 282.640625 177.660156 282.640625 Z M 177.660156 282.640625 " fill-opacity="1" fill-rule="nonzero"/><path fill="#192351" d="M 184.648438 282.640625 C 184.457031 282.640625 184.3125 282.488281 184.3125 282.304688 L 184.3125 276.460938 C 184.3125 276.269531 184.464844 276.121094 184.648438 276.121094 C 184.832031 276.121094 184.988281 276.277344 184.988281 276.460938 L 184.988281 282.304688 C 184.988281 282.488281 184.839844 282.640625 184.648438 282.640625 Z M 184.648438 282.640625 " fill-opacity="1" fill-rule="nonzero"/><path fill="#192351" d="M 191.640625 282.640625 C 191.449219 282.640625 191.300781 282.488281 191.300781 282.304688 L 191.300781 276.460938 C 191.300781 276.269531 191.457031 276.121094 191.640625 276.121094 C 191.820312 276.121094 191.976562 276.277344 191.976562 276.460938 L 191.976562 282.304688 C 191.976562 282.488281 191.820312 282.640625 191.640625 282.640625 Z M 191.640625 282.640625 " fill-opacity="1" fill-rule="nonzero"/><path fill="#192351" d="M 198.621094 282.640625 C 198.429688 282.640625 198.28125 282.488281 198.28125 282.304688 L 198.28125 276.460938 C 198.28125 276.269531 198.4375 276.121094 198.621094 276.121094 C 198.804688 276.121094 198.957031 276.277344 198.957031 276.460938 L 198.957031 282.304688 C 198.96875 282.488281 198.8125 282.640625 198.621094 282.640625 Z M 198.621094 282.640625 " fill-opacity="1" fill-rule="nonzero"/><path fill="#4b6fdd" d="M 197.925781 287.9375 L 197.925781 297.910156 C 197.925781 298.816406 197.1875 299.546875 196.273438 299.546875 L 146.261719 299.546875 C 145.359375 299.546875 144.617188 298.804688 144.617188 297.910156 L 144.617188 287.9375 C 144.617188 287.035156 145.359375 286.304688 146.261719 286.304688 L 196.273438 286.304688 C 197.195312 286.304688 197.925781 287.035156 197.925781 287.9375 Z M 197.925781 287.9375 " fill-opacity="1" fill-rule="nonzero"/><path fill="#192351" d="M 197.925781 297.023438 L 197.925781 297.910156 C 197.925781 298.816406 197.1875 299.546875 196.273438 299.546875 L 146.261719 299.546875 C 145.359375 299.546875 144.617188 298.804688 144.617188 297.910156 L 144.617188 297.023438 Z M 197.925781 297.023438 " fill-opacity="1" fill-rule="nonzero"/><path fill="#192351" d="M 150.320312 295.890625 C 150.128906 295.890625 149.980469 295.738281 149.980469 295.554688 L 149.980469 289.710938 C 149.980469 289.519531 150.136719 289.371094 150.320312 289.371094 C 150.503906 289.371094 150.65625 289.527344 150.65625 289.710938 L 150.65625 295.554688 C 150.65625 295.738281 150.503906 295.890625 150.320312 295.890625 Z M 150.320312 295.890625 " fill-opacity="1" fill-rule="nonzero"/><path fill="#192351" d="M 157.308594 295.890625 C 157.117188 295.890625 156.972656 295.738281 156.972656 295.554688 L 156.972656 289.710938 C 156.972656 289.519531 157.128906 289.371094 157.308594 289.371094 C 157.492188 289.371094 157.648438 289.527344 157.648438 289.710938 L 157.648438 295.554688 C 157.648438 295.738281 157.492188 295.890625 157.308594 295.890625 Z M 157.308594 295.890625 " fill-opacity="1" fill-rule="nonzero"/><path fill="#192351" d="M 164.289062 295.890625 C 164.097656 295.890625 163.953125 295.738281 163.953125 295.554688 L 163.953125 289.710938 C 163.953125 289.519531 164.109375 289.371094 164.289062 289.371094 C 164.472656 289.371094 164.628906 289.527344 164.628906 289.710938 L 164.628906 295.554688 C 164.636719 295.738281 164.484375 295.890625 164.289062 295.890625 Z M 164.289062 295.890625 " fill-opacity="1" fill-rule="nonzero"/><path fill="#192351" d="M 171.28125 295.890625 C 171.089844 295.890625 170.941406 295.738281 170.941406 295.554688 L 170.941406 289.710938 C 170.941406 289.519531 171.097656 289.371094 171.28125 289.371094 C 171.464844 289.371094 171.621094 289.527344 171.621094 289.710938 L 171.621094 295.554688 C 171.621094 295.738281 171.472656 295.890625 171.28125 295.890625 Z M 171.28125 295.890625 " fill-opacity="1" fill-rule="nonzero"/><path fill="#192351" d="M 178.269531 295.890625 C 178.078125 295.890625 177.933594 295.738281 177.933594 295.554688 L 177.933594 289.710938 C 177.933594 289.519531 178.089844 289.371094 178.269531 289.371094 C 178.453125 289.371094 178.609375 289.527344 178.609375 289.710938 L 178.609375 295.554688 C 178.609375 295.738281 178.453125 295.890625 178.269531 295.890625 Z M 178.269531 295.890625 " fill-opacity="1" fill-rule="nonzero"/><path fill="#192351" d="M 185.253906 295.890625 C 185.058594 295.890625 184.914062 295.738281 184.914062 295.554688 L 184.914062 289.710938 C 184.914062 289.519531 185.070312 289.371094 185.253906 289.371094 C 185.433594 289.371094 185.589844 289.527344 185.589844 289.710938 L 185.589844 295.554688 C 185.597656 295.738281 185.445312 295.890625 185.253906 295.890625 Z M 185.253906 295.890625 " fill-opacity="1" fill-rule="nonzero"/><path fill="#192351" d="M 192.242188 295.890625 C 192.050781 295.890625 191.902344 295.738281 191.902344 295.554688 L 191.902344 289.710938 C 191.902344 289.519531 192.058594 289.371094 192.242188 289.371094 C 192.425781 289.371094 192.582031 289.527344 192.582031 289.710938 L 192.582031 295.554688 C 192.582031 295.738281 192.433594 295.890625 192.242188 295.890625 Z M 192.242188 295.890625 " fill-opacity="1" fill-rule="nonzero"/><path fill="#4b6fdd" d="M 202.386719 301.1875 L 202.386719 311.160156 C 202.386719 312.066406 201.644531 312.796875 200.730469 312.796875 L 150.722656 312.796875 C 149.816406 312.796875 149.078125 312.054688 149.078125 311.160156 L 149.078125 301.1875 C 149.078125 300.285156 149.816406 299.554688 150.722656 299.554688 L 200.730469 299.554688 C 201.644531 299.546875 202.386719 300.285156 202.386719 301.1875 Z M 202.386719 301.1875 " fill-opacity="1" fill-rule="nonzero"/><path fill="#192351" d="M 202.386719 310.277344 L 202.386719 311.160156 C 202.386719 312.066406 201.644531 312.796875 200.730469 312.796875 L 150.722656 312.796875 C 149.816406 312.796875 149.078125 312.054688 149.078125 311.160156 L 149.078125 310.277344 Z M 202.386719 310.277344 " fill-opacity="1" fill-rule="nonzero"/><path fill="#192351" d="M 154.769531 309.132812 C 154.578125 309.132812 154.433594 308.980469 154.433594 308.796875 L 154.433594 302.953125 C 154.433594 302.761719 154.585938 302.613281 154.769531 302.613281 C 154.953125 302.613281 155.109375 302.769531 155.109375 302.953125 L 155.109375 308.796875 C 155.117188 308.988281 154.960938 309.132812 154.769531 309.132812 Z M 154.769531 309.132812 " fill-opacity="1" fill-rule="nonzero"/><path fill="#192351" d="M 161.761719 309.132812 C 161.566406 309.132812 161.421875 308.980469 161.421875 308.796875 L 161.421875 302.953125 C 161.421875 302.761719 161.578125 302.613281 161.761719 302.613281 C 161.941406 302.613281 162.097656 302.769531 162.097656 302.953125 L 162.097656 308.796875 C 162.105469 308.988281 161.953125 309.132812 161.761719 309.132812 Z M 161.761719 309.132812 " fill-opacity="1" fill-rule="nonzero"/><path fill="#192351" d="M 168.75 309.132812 C 168.558594 309.132812 168.410156 308.980469 168.410156 308.796875 L 168.410156 302.953125 C 168.410156 302.761719 168.566406 302.613281 168.75 302.613281 C 168.933594 302.613281 169.089844 302.769531 169.089844 302.953125 L 169.089844 308.796875 C 169.089844 308.988281 168.933594 309.132812 168.75 309.132812 Z M 168.75 309.132812 " fill-opacity="1" fill-rule="nonzero"/><path fill="#192351" d="M 175.730469 309.132812 C 175.539062 309.132812 175.394531 308.980469 175.394531 308.796875 L 175.394531 302.953125 C 175.394531 302.761719 175.546875 302.613281 175.730469 302.613281 C 175.914062 302.613281 176.070312 302.769531 176.070312 302.953125 L 176.070312 308.796875 C 176.078125 308.988281 175.921875 309.132812 175.730469 309.132812 Z M 175.730469 309.132812 " fill-opacity="1" fill-rule="nonzero"/><path fill="#192351" d="M 182.722656 309.132812 C 182.527344 309.132812 182.382812 308.980469 182.382812 308.796875 L 182.382812 302.953125 C 182.382812 302.761719 182.539062 302.613281 182.722656 302.613281 C 182.902344 302.613281 183.058594 302.769531 183.058594 302.953125 L 183.058594 308.796875 C 183.066406 308.988281 182.914062 309.132812 182.722656 309.132812 Z M 182.722656 309.132812 " fill-opacity="1" fill-rule="nonzero"/><path fill="#192351" d="M 189.710938 309.132812 C 189.519531 309.132812 189.375 308.980469 189.375 308.796875 L 189.375 302.953125 C 189.375 302.761719 189.527344 302.613281 189.710938 302.613281 C 189.894531 302.613281 190.050781 302.769531 190.050781 302.953125 L 190.050781 308.796875 C 190.050781 308.988281 189.894531 309.132812 189.710938 309.132812 Z M 189.710938 309.132812 " fill-opacity="1" fill-rule="nonzero"/><path fill="#192351" d="M 196.703125 309.132812 C 196.507812 309.132812 196.363281 308.980469 196.363281 308.796875 L 196.363281 302.953125 C 196.363281 302.761719 196.519531 302.613281 196.703125 302.613281 C 196.882812 302.613281 197.039062 302.769531 197.039062 302.953125 L 197.039062 308.796875 C 197.039062 308.988281 196.882812 309.132812 196.703125 309.132812 Z M 196.703125 309.132812 " fill-opacity="1" fill-rule="nonzero"/><path fill="#4b6fdd" d="M 204.3125 314.441406 L 204.3125 324.414062 C 204.3125 325.316406 203.574219 326.046875 202.660156 326.046875 L 152.648438 326.046875 C 151.746094 326.046875 151.003906 325.308594 151.003906 324.414062 L 151.003906 314.441406 C 151.003906 313.535156 151.746094 312.804688 152.648438 312.804688 L 202.660156 312.804688 C 203.574219 312.796875 204.3125 313.535156 204.3125 314.441406 Z M 204.3125 314.441406 " fill-opacity="1" fill-rule="nonzero"/><path fill="#192351" d="M 204.3125 323.515625 L 204.3125 324.402344 C 204.3125 325.308594 203.574219 326.039062 202.660156 326.039062 L 152.648438 326.039062 C 151.746094 326.039062 151.003906 325.296875 151.003906 324.402344 L 151.003906 323.515625 Z M 204.3125 323.515625 " fill-opacity="1" fill-rule="nonzero"/><path fill="#192351" d="M 156.699219 322.386719 C 156.503906 322.386719 156.359375 322.230469 156.359375 322.046875 L 156.359375 316.203125 C 156.359375 316.011719 156.515625 315.863281 156.699219 315.863281 C 156.878906 315.863281 157.035156 316.019531 157.035156 316.203125 L 157.035156 322.046875 C 157.046875 322.230469 156.890625 322.386719 156.699219 322.386719 Z M 156.699219 322.386719 " fill-opacity="1" fill-rule="nonzero"/><path fill="#192351" d="M 163.6875 322.386719 C 163.496094 322.386719 163.351562 322.230469 163.351562 322.046875 L 163.351562 316.203125 C 163.351562 316.011719 163.503906 315.863281 163.6875 315.863281 C 163.871094 315.863281 164.027344 316.019531 164.027344 316.203125 L 164.027344 322.046875 C 164.027344 322.230469 163.878906 322.386719 163.6875 322.386719 Z M 163.6875 322.386719 " fill-opacity="1" fill-rule="nonzero"/><path fill="#192351" d="M 170.679688 322.386719 C 170.484375 322.386719 170.339844 322.230469 170.339844 322.046875 L 170.339844 316.203125 C 170.339844 316.011719 170.496094 315.863281 170.679688 315.863281 C 170.859375 315.863281 171.015625 316.019531 171.015625 316.203125 L 171.015625 322.046875 C 171.015625 322.230469 170.859375 322.386719 170.679688 322.386719 Z M 170.679688 322.386719 " fill-opacity="1" fill-rule="nonzero"/><path fill="#192351" d="M 177.660156 322.386719 C 177.46875 322.386719 177.320312 322.230469 177.320312 322.046875 L 177.320312 316.203125 C 177.320312 316.011719 177.476562 315.863281 177.660156 315.863281 C 177.839844 315.863281 177.996094 316.019531 177.996094 316.203125 L 177.996094 322.046875 C 178.007812 322.230469 177.851562 322.386719 177.660156 322.386719 Z M 177.660156 322.386719 " fill-opacity="1" fill-rule="nonzero"/><path fill="#192351" d="M 184.648438 322.386719 C 184.457031 322.386719 184.3125 322.230469 184.3125 322.046875 L 184.3125 316.203125 C 184.3125 316.011719 184.464844 315.863281 184.648438 315.863281 C 184.832031 315.863281 184.988281 316.019531 184.988281 316.203125 L 184.988281 322.046875 C 184.988281 322.230469 184.839844 322.386719 184.648438 322.386719 Z M 184.648438 322.386719 " fill-opacity="1" fill-rule="nonzero"/><path fill="#192351" d="M 191.640625 322.386719 C 191.449219 322.386719 191.300781 322.230469 191.300781 322.046875 L 191.300781 316.203125 C 191.300781 316.011719 191.457031 315.863281 191.640625 315.863281 C 191.820312 315.863281 191.976562 316.019531 191.976562 316.203125 L 191.976562 322.046875 C 191.976562 322.230469 191.820312 322.386719 191.640625 322.386719 Z M 191.640625 322.386719 " fill-opacity="1" fill-rule="nonzero"/><path fill="#192351" d="M 198.621094 322.386719 C 198.429688 322.386719 198.28125 322.230469 198.28125 322.046875 L 198.28125 316.203125 C 198.28125 316.011719 198.4375 315.863281 198.621094 315.863281 C 198.804688 315.863281 198.957031 316.019531 198.957031 316.203125 L 198.957031 322.046875 C 198.96875 322.230469 198.8125 322.386719 198.621094 322.386719 Z M 198.621094 322.386719 " fill-opacity="1" fill-rule="nonzero"/><path fill="#4b6fdd" d="M 212.527344 287.9375 L 212.527344 297.910156 C 212.527344 298.816406 213.265625 299.546875 214.179688 299.546875 L 264.191406 299.546875 C 265.09375 299.546875 265.835938 298.804688 265.835938 297.910156 L 265.835938 287.9375 C 265.835938 287.035156 265.09375 286.304688 264.191406 286.304688 L 214.179688 286.304688 C 213.257812 286.304688 212.527344 287.035156 212.527344 287.9375 Z M 212.527344 287.9375 " fill-opacity="1" fill-rule="nonzero"/><path fill="#192351" d="M 212.527344 297.023438 L 212.527344 297.910156 C 212.527344 298.816406 213.265625 299.546875 214.179688 299.546875 L 264.191406 299.546875 C 265.09375 299.546875 265.835938 298.804688 265.835938 297.910156 L 265.835938 297.023438 Z M 212.527344 297.023438 " fill-opacity="1" fill-rule="nonzero"/><path fill="#192351" d="M 260.132812 295.890625 C 259.941406 295.890625 259.796875 295.738281 259.796875 295.554688 L 259.796875 289.710938 C 259.796875 289.519531 259.949219 289.371094 260.132812 289.371094 C 260.316406 289.371094 260.472656 289.527344 260.472656 289.710938 L 260.472656 295.554688 C 260.480469 295.738281 260.324219 295.890625 260.132812 295.890625 Z M 260.132812 295.890625 " fill-opacity="1" fill-rule="nonzero"/><path fill="#192351" d="M 253.152344 295.890625 C 252.960938 295.890625 252.8125 295.738281 252.8125 295.554688 L 252.8125 289.710938 C 252.8125 289.519531 252.96875 289.371094 253.152344 289.371094 C 253.335938 289.371094 253.492188 289.527344 253.492188 289.710938 L 253.492188 295.554688 C 253.492188 295.738281 253.335938 295.890625 253.152344 295.890625 Z M 253.152344 295.890625 " fill-opacity="1" fill-rule="nonzero"/><path fill="#192351" d="M 246.164062 295.890625 C 245.96875 295.890625 245.824219 295.738281 245.824219 295.554688 L 245.824219 289.710938 C 245.824219 289.519531 245.980469 289.371094 246.164062 289.371094 C 246.34375 289.371094 246.5 289.527344 246.5 289.710938 L 246.5 295.554688 C 246.5 295.738281 246.34375 295.890625 246.164062 295.890625 Z M 246.164062 295.890625 " fill-opacity="1" fill-rule="nonzero"/><path fill="#192351" d="M 239.171875 295.890625 C 238.980469 295.890625 238.835938 295.738281 238.835938 295.554688 L 238.835938 289.710938 C 238.835938 289.519531 238.988281 289.371094 239.171875 289.371094 C 239.355469 289.371094 239.511719 289.527344 239.511719 289.710938 L 239.511719 295.554688 C 239.511719 295.738281 239.363281 295.890625 239.171875 295.890625 Z M 239.171875 295.890625 " fill-opacity="1" fill-rule="nonzero"/><path fill="#192351" d="M 232.183594 295.890625 C 231.988281 295.890625 231.84375 295.738281 231.84375 295.554688 L 231.84375 289.710938 C 231.84375 289.519531 232 289.371094 232.183594 289.371094 C 232.363281 289.371094 232.519531 289.527344 232.519531 289.710938 L 232.519531 295.554688 C 232.527344 295.738281 232.375 295.890625 232.183594 295.890625 Z M 232.183594 295.890625 " fill-opacity="1" fill-rule="nonzero"/><path fill="#192351" d="M 225.199219 295.890625 C 225.007812 295.890625 224.863281 295.738281 224.863281 295.554688 L 224.863281 289.710938 C 224.863281 289.519531 225.019531 289.371094 225.199219 289.371094 C 225.382812 289.371094 225.539062 289.527344 225.539062 289.710938 L 225.539062 295.554688 C 225.539062 295.738281 225.382812 295.890625 225.199219 295.890625 Z M 225.199219 295.890625 " fill-opacity="1" fill-rule="nonzero"/><path fill="#192351" d="M 218.210938 295.890625 C 218.019531 295.890625 217.871094 295.738281 217.871094 295.554688 L 217.871094 289.710938 C 217.871094 289.519531 218.027344 289.371094 218.210938 289.371094 C 218.394531 289.371094 218.550781 289.527344 218.550781 289.710938 L 218.550781 295.554688 C 218.550781 295.738281 218.402344 295.890625 218.210938 295.890625 Z M 218.210938 295.890625 " fill-opacity="1" fill-rule="nonzero"/><path fill="#4b6fdd" d="M 204.449219 301.1875 L 204.449219 311.160156 C 204.449219 312.066406 205.191406 312.796875 206.105469 312.796875 L 256.113281 312.796875 C 257.015625 312.796875 257.757812 312.054688 257.757812 311.160156 L 257.757812 301.1875 C 257.757812 300.285156 257.015625 299.554688 256.113281 299.554688 L 206.105469 299.554688 C 205.191406 299.546875 204.449219 300.285156 204.449219 301.1875 Z M 204.449219 301.1875 " fill-opacity="1" fill-rule="nonzero"/><path fill="#192351" d="M 204.449219 310.277344 L 204.449219 311.160156 C 204.449219 312.066406 205.191406 312.796875 206.105469 312.796875 L 256.113281 312.796875 C 257.015625 312.796875 257.757812 312.054688 257.757812 311.160156 L 257.757812 310.277344 Z M 204.449219 310.277344 " fill-opacity="1" fill-rule="nonzero"/><path fill="#192351" d="M 252.066406 309.132812 C 251.875 309.132812 251.726562 308.980469 251.726562 308.796875 L 251.726562 302.953125 C 251.726562 302.761719 251.882812 302.613281 252.066406 302.613281 C 252.246094 302.613281 252.402344 302.769531 252.402344 302.953125 L 252.402344 308.796875 C 252.402344 308.988281 252.257812 309.132812 252.066406 309.132812 Z M 252.066406 309.132812 " fill-opacity="1" fill-rule="nonzero"/><path fill="#192351" d="M 245.074219 309.132812 C 244.882812 309.132812 244.738281 308.980469 244.738281 308.796875 L 244.738281 302.953125 C 244.738281 302.761719 244.890625 302.613281 245.074219 302.613281 C 245.257812 302.613281 245.414062 302.769531 245.414062 302.953125 L 245.414062 308.796875 C 245.421875 308.988281 245.265625 309.132812 245.074219 309.132812 Z M 245.074219 309.132812 " fill-opacity="1" fill-rule="nonzero"/><path fill="#192351" d="M 238.09375 309.132812 C 237.902344 309.132812 237.753906 308.980469 237.753906 308.796875 L 237.753906 302.953125 C 237.753906 302.761719 237.910156 302.613281 238.09375 302.613281 C 238.277344 302.613281 238.433594 302.769531 238.433594 302.953125 L 238.433594 308.796875 C 238.433594 308.988281 238.277344 309.132812 238.09375 309.132812 Z M 238.09375 309.132812 " fill-opacity="1" fill-rule="nonzero"/><path fill="#192351" d="M 231.105469 309.132812 C 230.910156 309.132812 230.765625 308.980469 230.765625 308.796875 L 230.765625 302.953125 C 230.765625 302.761719 230.921875 302.613281 231.105469 302.613281 C 231.285156 302.613281 231.441406 302.769531 231.441406 302.953125 L 231.441406 308.796875 C 231.441406 308.988281 231.285156 309.132812 231.105469 309.132812 Z M 231.105469 309.132812 " fill-opacity="1" fill-rule="nonzero"/><path fill="#192351" d="M 224.113281 309.132812 C 223.921875 309.132812 223.777344 308.980469 223.777344 308.796875 L 223.777344 302.953125 C 223.777344 302.761719 223.929688 302.613281 224.113281 302.613281 C 224.296875 302.613281 224.453125 302.769531 224.453125 302.953125 L 224.453125 308.796875 C 224.460938 308.988281 224.304688 309.132812 224.113281 309.132812 Z M 224.113281 309.132812 " fill-opacity="1" fill-rule="nonzero"/><path fill="#192351" d="M 217.125 309.132812 C 216.933594 309.132812 216.785156 308.980469 216.785156 308.796875 L 216.785156 302.953125 C 216.785156 302.761719 216.941406 302.613281 217.125 302.613281 C 217.304688 302.613281 217.460938 302.769531 217.460938 302.953125 L 217.460938 308.796875 C 217.472656 308.988281 217.316406 309.132812 217.125 309.132812 Z M 217.125 309.132812 " fill-opacity="1" fill-rule="nonzero"/><path fill="#192351" d="M 210.140625 309.132812 C 209.949219 309.132812 209.804688 308.980469 209.804688 308.796875 L 209.804688 302.953125 C 209.804688 302.761719 209.960938 302.613281 210.140625 302.613281 C 210.324219 302.613281 210.480469 302.769531 210.480469 302.953125 L 210.480469 308.796875 C 210.480469 308.988281 210.324219 309.132812 210.140625 309.132812 Z M 210.140625 309.132812 " fill-opacity="1" fill-rule="nonzero"/><path fill="#4b6fdd" d="M 206.140625 314.441406 L 206.140625 324.414062 C 206.140625 325.316406 206.878906 326.046875 207.792969 326.046875 L 257.804688 326.046875 C 258.707031 326.046875 259.449219 325.308594 259.449219 324.414062 L 259.449219 314.441406 C 259.449219 313.535156 258.707031 312.804688 257.804688 312.804688 L 207.792969 312.804688 C 206.878906 312.796875 206.140625 313.535156 206.140625 314.441406 Z M 206.140625 314.441406 " fill-opacity="1" fill-rule="nonzero"/><path fill="#192351" d="M 206.140625 323.515625 L 206.140625 324.402344 C 206.140625 325.308594 206.878906 326.039062 207.792969 326.039062 L 257.804688 326.039062 C 258.707031 326.039062 259.449219 325.296875 259.449219 324.402344 L 259.449219 323.515625 Z M 206.140625 323.515625 " fill-opacity="1" fill-rule="nonzero"/><path fill="#192351" d="M 253.753906 322.386719 C 253.5625 322.386719 253.417969 322.230469 253.417969 322.046875 L 253.417969 316.203125 C 253.417969 316.011719 253.574219 315.863281 253.753906 315.863281 C 253.9375 315.863281 254.09375 316.019531 254.09375 316.203125 L 254.09375 322.046875 C 254.09375 322.230469 253.9375 322.386719 253.753906 322.386719 Z M 253.753906 322.386719 " fill-opacity="1" fill-rule="nonzero"/><path fill="#192351" d="M 246.765625 322.386719 C 246.574219 322.386719 246.425781 322.230469 246.425781 322.046875 L 246.425781 316.203125 C 246.425781 316.011719 246.582031 315.863281 246.765625 315.863281 C 246.949219 315.863281 247.101562 316.019531 247.101562 316.203125 L 247.101562 322.046875 C 247.101562 322.230469 246.957031 322.386719 246.765625 322.386719 Z M 246.765625 322.386719 " fill-opacity="1" fill-rule="nonzero"/><path fill="#192351" d="M 239.773438 322.386719 C 239.582031 322.386719 239.4375 322.230469 239.4375 322.046875 L 239.4375 316.203125 C 239.4375 316.011719 239.59375 315.863281 239.773438 315.863281 C 239.957031 315.863281 240.113281 316.019531 240.113281 316.203125 L 240.113281 322.046875 C 240.121094 322.230469 239.96875 322.386719 239.773438 322.386719 Z M 239.773438 322.386719 " fill-opacity="1" fill-rule="nonzero"/><path fill="#192351" d="M 232.792969 322.386719 C 232.601562 322.386719 232.457031 322.230469 232.457031 322.046875 L 232.457031 316.203125 C 232.457031 316.011719 232.613281 315.863281 232.792969 315.863281 C 232.976562 315.863281 233.132812 316.019531 233.132812 316.203125 L 233.132812 322.046875 C 233.132812 322.230469 232.976562 322.386719 232.792969 322.386719 Z M 232.792969 322.386719 " fill-opacity="1" fill-rule="nonzero"/><path fill="#192351" d="M 225.804688 322.386719 C 225.613281 322.386719 225.464844 322.230469 225.464844 322.046875 L 225.464844 316.203125 C 225.464844 316.011719 225.621094 315.863281 225.804688 315.863281 C 225.988281 315.863281 226.140625 316.019531 226.140625 316.203125 L 226.140625 322.046875 C 226.140625 322.230469 225.988281 322.386719 225.804688 322.386719 Z M 225.804688 322.386719 " fill-opacity="1" fill-rule="nonzero"/><path fill="#192351" d="M 218.8125 322.386719 C 218.621094 322.386719 218.476562 322.230469 218.476562 322.046875 L 218.476562 316.203125 C 218.476562 316.011719 218.632812 315.863281 218.8125 315.863281 C 218.996094 315.863281 219.152344 316.019531 219.152344 316.203125 L 219.152344 322.046875 C 219.160156 322.230469 219.003906 322.386719 218.8125 322.386719 Z M 218.8125 322.386719 " fill-opacity="1" fill-rule="nonzero"/><path fill="#192351" d="M 211.824219 322.386719 C 211.632812 322.386719 211.484375 322.230469 211.484375 322.046875 L 211.484375 316.203125 C 211.484375 316.011719 211.640625 315.863281 211.824219 315.863281 C 212.007812 315.863281 212.160156 316.019531 212.160156 316.203125 L 212.160156 322.046875 C 212.171875 322.230469 212.015625 322.386719 211.824219 322.386719 Z M 211.824219 322.386719 " fill-opacity="1" fill-rule="nonzero"/><path fill="#4b6fdd" d="M 341.53125 118.910156 L 343.734375 121.113281 L 333.71875 131.121094 L 331.515625 128.917969 Z M 341.53125 118.910156 " fill-opacity="1" fill-rule="nonzero"/><path fill="#4b6fdd" d="M 343.742188 128.925781 L 341.539062 131.128906 L 331.523438 121.121094 L 333.726562 118.917969 Z M 343.742188 128.925781 " fill-opacity="1" fill-rule="nonzero"/><path fill="#dae4fe" d="M 350.417969 75.46875 L 351.921875 76.972656 L 345.0625 83.832031 L 343.554688 82.328125 Z M 350.417969 75.46875 " fill-opacity="1" fill-rule="nonzero"/><path fill="#dae4fe" d="M 351.929688 82.335938 L 350.421875 83.839844 L 343.558594 76.980469 L 345.066406 75.476562 Z M 351.929688 82.335938 " fill-opacity="1" fill-rule="nonzero"/></svg>