<svg xmlns="http://www.w3.org/2000/svg" xmlns:xlink="http://www.w3.org/1999/xlink" width="500" zoomAndPan="magnify" viewBox="0 0 375 374.999991" height="500" preserveAspectRatio="xMidYMid meet" version="1.0"><defs><g/><clipPath id="bbbce0d3d9"><path d="M 61 145.703125 L 116 145.703125 L 116 177 L 61 177 Z M 61 145.703125 " clip-rule="nonzero"/></clipPath><clipPath id="44d66b772a"><path d="M 49.527344 163 L 126.777344 163 L 126.777344 228.953125 L 49.527344 228.953125 Z M 49.527344 163 " clip-rule="nonzero"/></clipPath></defs><g clip-path="url(#bbbce0d3d9)"><path fill="#ffcc00" d="M 115.191406 161.246094 L 88.25 145.703125 L 61.789062 161.59375 L 88.234375 176.769531 Z M 115.191406 161.246094 " fill-opacity="1" fill-rule="nonzero"/></g><g clip-path="url(#44d66b772a)"><path fill="#ffcc00" d="M 88.25 186.039062 L 88.035156 208.804688 L 88.015625 209.785156 L 86.203125 184.808594 L 49.644531 163.675781 L 49.542969 163.625 L 49.542969 206.074219 C 52.972656 207.957031 56.347656 209.9375 59.710938 211.917969 C 57.082031 217.441406 53.835938 222.648438 51.339844 228.242188 C 58.3125 225.777344 65.117188 222.816406 72.042969 220.21875 C 73.355469 219.523438 74.570312 220.488281 75.703125 221.101562 C 76.867188 221.800781 78.050781 222.484375 79.214844 223.167969 L 88.25 228.941406 L 127.058594 206.160156 L 127.074219 206.160156 L 127.125 163.65625 C 114.125 171.03125 101.179688 178.535156 88.25 186.039062 Z M 110.582031 199.054688 C 109.46875 199.054688 108.503906 198.371094 108.070312 197.40625 C 107.917969 197.074219 107.851562 196.707031 107.851562 196.308594 C 107.851562 194.792969 109.085938 193.5625 110.597656 193.5625 C 110.914062 193.5625 111.230469 193.613281 111.515625 193.726562 C 112.578125 194.09375 113.328125 195.109375 113.328125 196.308594 C 113.3125 197.820312 112.097656 199.054688 110.582031 199.054688 Z M 110.582031 199.054688 " fill-opacity="1" fill-rule="nonzero"/></g><g fill="#38b6ff" fill-opacity="1"><g transform="translate(144.975964, 176.048587)"><g><path d="M 18.625 0.640625 C 15.375 0.640625 12.488281 -0.0703125 9.96875 -1.5 C 7.457031 -2.925781 5.5 -4.894531 4.09375 -7.40625 C 2.6875 -9.914062 1.984375 -12.8125 1.984375 -16.09375 C 1.984375 -19.375 2.6875 -22.269531 4.09375 -24.78125 C 5.5 -27.300781 7.453125 -29.273438 9.953125 -30.703125 C 12.453125 -32.128906 15.328125 -32.84375 18.578125 -32.84375 C 21.304688 -32.84375 23.804688 -32.320312 26.078125 -31.28125 C 28.347656 -30.238281 30.253906 -28.765625 31.796875 -26.859375 C 33.347656 -24.960938 34.429688 -22.722656 35.046875 -20.140625 L 27.515625 -20.140625 C 26.898438 -21.921875 25.804688 -23.320312 24.234375 -24.34375 C 22.671875 -25.375 20.863281 -25.890625 18.8125 -25.890625 C 17 -25.890625 15.378906 -25.472656 13.953125 -24.640625 C 12.535156 -23.816406 11.425781 -22.671875 10.625 -21.203125 C 9.832031 -19.734375 9.4375 -18.03125 9.4375 -16.09375 C 9.4375 -14.164062 9.832031 -12.460938 10.625 -10.984375 C 11.425781 -9.515625 12.53125 -8.363281 13.9375 -7.53125 C 15.34375 -6.707031 16.953125 -6.296875 18.765625 -6.296875 C 20.878906 -6.296875 22.734375 -6.835938 24.328125 -7.921875 C 25.921875 -9.015625 27.054688 -10.484375 27.734375 -12.328125 L 35.28125 -12.328125 C 34.757812 -9.722656 33.71875 -7.445312 32.15625 -5.5 C 30.59375 -3.550781 28.648438 -2.039062 26.328125 -0.96875 C 24.015625 0.101562 21.445312 0.640625 18.625 0.640625 Z M 18.625 0.640625 "/></g></g></g><g fill="#38b6ff" fill-opacity="1"><g transform="translate(181.635535, 176.048587)"><g><path d="M 3.5 0 L 3.5 -34.046875 L 10.484375 -34.046875 L 10.484375 -22.3125 C 11.410156 -23.132812 12.484375 -23.753906 13.703125 -24.171875 C 14.929688 -24.585938 16.222656 -24.796875 17.578125 -24.796875 C 20.703125 -24.796875 23.148438 -23.828125 24.921875 -21.890625 C 26.703125 -19.960938 27.59375 -17.3125 27.59375 -13.9375 L 27.59375 0 L 20.609375 0 L 20.609375 -13.25 C 20.609375 -15.03125 20.1875 -16.398438 19.34375 -17.359375 C 18.5 -18.328125 17.328125 -18.8125 15.828125 -18.8125 C 14.234375 -18.8125 12.941406 -18.265625 11.953125 -17.171875 C 10.972656 -16.085938 10.484375 -14.597656 10.484375 -12.703125 L 10.484375 0 Z M 3.5 0 "/></g></g></g><g fill="#38b6ff" fill-opacity="1"><g transform="translate(211.809513, 176.048587)"><g><path d="M 11.546875 0.453125 C 8.691406 0.453125 6.4375 -0.210938 4.78125 -1.546875 C 3.125 -2.878906 2.296875 -4.707031 2.296875 -7.03125 C 2.296875 -9.269531 3.039062 -11.054688 4.53125 -12.390625 C 6.019531 -13.722656 8.019531 -14.390625 10.53125 -14.390625 L 19.28125 -14.390625 L 19.28125 -15.5 C 19.28125 -16.695312 18.847656 -17.65625 17.984375 -18.375 C 17.128906 -19.09375 16.007812 -19.453125 14.625 -19.453125 C 13.488281 -19.453125 12.519531 -19.191406 11.71875 -18.671875 C 10.925781 -18.148438 10.425781 -17.460938 10.21875 -16.609375 L 3.5 -16.609375 C 3.925781 -19.242188 5.113281 -21.265625 7.0625 -22.671875 C 9.007812 -24.085938 11.515625 -24.796875 14.578125 -24.796875 C 18.203125 -24.796875 21.03125 -23.878906 23.0625 -22.046875 C 25.101562 -20.222656 26.125 -17.71875 26.125 -14.53125 L 26.125 0 L 20.9375 0 L 20.140625 -2.8125 C 18.023438 -0.632812 15.160156 0.453125 11.546875 0.453125 Z M 9.203125 -7.3125 C 9.203125 -6.488281 9.5625 -5.820312 10.28125 -5.3125 C 11 -4.800781 11.957031 -4.546875 13.15625 -4.546875 C 14.90625 -4.546875 16.351562 -5.050781 17.5 -6.0625 C 18.65625 -7.082031 19.257812 -8.40625 19.3125 -10.03125 L 12.703125 -10.03125 C 11.648438 -10.03125 10.800781 -9.785156 10.15625 -9.296875 C 9.519531 -8.804688 9.203125 -8.144531 9.203125 -7.3125 Z M 9.203125 -7.3125 "/></g></g></g><g fill="#38b6ff" fill-opacity="1"><g transform="translate(240.511586, 176.048587)"><g><path d="M 15.140625 0 C 12.066406 0 9.707031 -0.785156 8.0625 -2.359375 C 6.425781 -3.941406 5.609375 -6.207031 5.609375 -9.15625 L 5.609375 -18.453125 L 0.921875 -18.453125 L 0.921875 -24.15625 L 3.078125 -24.15625 C 4.398438 -24.15625 5.296875 -24.367188 5.765625 -24.796875 C 6.242188 -25.222656 6.578125 -26.050781 6.765625 -27.28125 L 7.171875 -30.40625 L 12.609375 -30.40625 L 12.609375 -24.15625 L 19.234375 -24.15625 L 19.234375 -18.453125 L 12.609375 -18.453125 L 12.609375 -10.21875 C 12.609375 -7.457031 13.957031 -6.078125 16.65625 -6.078125 L 19.546875 -6.078125 L 19.546875 0 Z M 15.140625 0 "/></g></g></g><g fill="#38b6ff" fill-opacity="1"><g transform="translate(147.873628, 230.596537)"><g><path d="M 12.46875 0 L 12.46875 -28.34375 L 1.5625 -28.34375 L 1.5625 -32.203125 L 27.375 -32.203125 L 27.375 -28.34375 L 16.515625 -28.34375 L 16.515625 0 Z M 12.46875 0 "/></g></g></g><g fill="#38b6ff" fill-opacity="1"><g transform="translate(176.391708, 230.596537)"><g><path d="M 4.28125 0 L 4.28125 -34.046875 L 8.140625 -34.046875 L 8.140625 -20.75 C 9.179688 -22.03125 10.421875 -22.96875 11.859375 -23.5625 C 13.304688 -24.164062 14.796875 -24.46875 16.328125 -24.46875 C 19.484375 -24.46875 21.953125 -23.476562 23.734375 -21.5 C 25.515625 -19.519531 26.40625 -16.832031 26.40625 -13.4375 L 26.40625 0 L 22.546875 0 L 22.546875 -13.0625 C 22.546875 -15.457031 21.945312 -17.34375 20.75 -18.71875 C 19.550781 -20.101562 17.910156 -20.796875 15.828125 -20.796875 C 13.585938 -20.796875 11.742188 -20.019531 10.296875 -18.46875 C 8.859375 -16.914062 8.140625 -14.820312 8.140625 -12.1875 L 8.140625 0 Z M 4.28125 0 "/></g></g></g><g fill="#38b6ff" fill-opacity="1"><g transform="translate(206.151707, 230.596537)"><g><path d="M 14.625 0.59375 C 12.238281 0.59375 10.125 0.0664062 8.28125 -0.984375 C 6.4375 -2.046875 4.992188 -3.523438 3.953125 -5.421875 C 2.910156 -7.328125 2.390625 -9.503906 2.390625 -11.953125 C 2.390625 -14.410156 2.910156 -16.582031 3.953125 -18.46875 C 4.992188 -20.351562 6.441406 -21.820312 8.296875 -22.875 C 10.160156 -23.9375 12.285156 -24.46875 14.671875 -24.46875 C 17.210938 -24.46875 19.421875 -23.867188 21.296875 -22.671875 C 23.171875 -21.484375 24.601562 -19.835938 25.59375 -17.734375 C 26.59375 -15.628906 27.046875 -13.179688 26.953125 -10.390625 L 6.296875 -10.390625 C 6.609375 -8.148438 7.515625 -6.363281 9.015625 -5.03125 C 10.515625 -3.695312 12.398438 -3.03125 14.671875 -3.03125 C 16.234375 -3.03125 17.660156 -3.367188 18.953125 -4.046875 C 20.242188 -4.722656 21.253906 -5.691406 21.984375 -6.953125 L 26.359375 -6.953125 C 25.410156 -4.617188 23.890625 -2.773438 21.796875 -1.421875 C 19.710938 -0.078125 17.320312 0.59375 14.625 0.59375 Z M 6.34375 -13.796875 L 23.09375 -13.796875 C 22.695312 -15.972656 21.738281 -17.691406 20.21875 -18.953125 C 18.695312 -20.210938 16.847656 -20.84375 14.671875 -20.84375 C 12.460938 -20.84375 10.609375 -20.195312 9.109375 -18.90625 C 7.609375 -17.613281 6.6875 -15.910156 6.34375 -13.796875 Z M 6.34375 -13.796875 "/></g></g></g><g fill="#38b6ff" fill-opacity="1"><g transform="translate(271.975914, 175.425149)"><g><path d="M 4.6875 0 L 4.6875 -32.203125 L 8.734375 -32.203125 L 8.734375 0 Z M 4.6875 0 "/></g></g></g><g fill="#38b6ff" fill-opacity="1"><g transform="translate(284.946678, 175.425149)"><g><path d="M 4.28125 0 L 4.28125 -23.875 L 7.453125 -23.875 L 7.859375 -20.375 C 8.910156 -21.820312 10.175781 -22.863281 11.65625 -23.5 C 13.144531 -24.144531 14.6875 -24.46875 16.28125 -24.46875 C 19.46875 -24.46875 21.953125 -23.457031 23.734375 -21.4375 C 25.515625 -19.414062 26.40625 -16.703125 26.40625 -13.296875 L 26.40625 0 L 22.546875 0 L 22.546875 -12.921875 C 22.546875 -15.347656 21.9375 -17.265625 20.71875 -18.671875 C 19.507812 -20.085938 17.863281 -20.796875 15.78125 -20.796875 C 14.300781 -20.796875 12.988281 -20.429688 11.84375 -19.703125 C 10.695312 -18.984375 9.789062 -17.960938 9.125 -16.640625 C 8.46875 -15.328125 8.140625 -13.796875 8.140625 -12.046875 L 8.140625 0 Z M 4.28125 0 "/></g></g></g><g fill="#38b6ff" fill-opacity="1"><g transform="translate(236.030747, 229.973099)"><g><path d="M 3.859375 0 L 3.859375 -32.203125 L 18.265625 -32.203125 C 21.546875 -32.203125 24.148438 -31.421875 26.078125 -29.859375 C 28.015625 -28.296875 28.984375 -26.191406 28.984375 -23.546875 C 28.984375 -22.046875 28.644531 -20.679688 27.96875 -19.453125 C 27.289062 -18.234375 26.335938 -17.269531 25.109375 -16.5625 C 26.648438 -15.882812 27.84375 -14.882812 28.6875 -13.5625 C 29.53125 -12.25 29.953125 -10.734375 29.953125 -9.015625 C 29.953125 -7.203125 29.488281 -5.617188 28.5625 -4.265625 C 27.644531 -2.921875 26.363281 -1.875 24.71875 -1.125 C 23.082031 -0.375 21.175781 0 19 0 Z M 11.09375 -5.796875 L 17.890625 -5.796875 C 19.335938 -5.796875 20.457031 -6.128906 21.25 -6.796875 C 22.050781 -7.472656 22.453125 -8.425781 22.453125 -9.65625 C 22.453125 -10.882812 22.050781 -11.835938 21.25 -12.515625 C 20.457031 -13.191406 19.335938 -13.53125 17.890625 -13.53125 L 11.09375 -13.53125 Z M 11.09375 -19.09375 L 17.15625 -19.09375 C 18.570312 -19.09375 19.65625 -19.410156 20.40625 -20.046875 C 21.15625 -20.691406 21.53125 -21.597656 21.53125 -22.765625 C 21.53125 -23.929688 21.15625 -24.828125 20.40625 -25.453125 C 19.65625 -26.085938 18.570312 -26.40625 17.15625 -26.40625 L 11.09375 -26.40625 Z M 11.09375 -19.09375 "/></g></g></g><g fill="#38b6ff" fill-opacity="1"><g transform="translate(267.261978, 229.973099)"><g><path d="M 15.359375 0.640625 C 12.691406 0.640625 10.335938 0.101562 8.296875 -0.96875 C 6.265625 -2.039062 4.671875 -3.535156 3.515625 -5.453125 C 2.367188 -7.367188 1.796875 -9.582031 1.796875 -12.09375 C 1.796875 -14.613281 2.367188 -16.820312 3.515625 -18.71875 C 4.671875 -20.625 6.265625 -22.113281 8.296875 -23.1875 C 10.335938 -24.257812 12.691406 -24.796875 15.359375 -24.796875 C 18.023438 -24.796875 20.378906 -24.257812 22.421875 -23.1875 C 24.460938 -22.113281 26.050781 -20.625 27.1875 -18.71875 C 28.320312 -16.820312 28.890625 -14.613281 28.890625 -12.09375 C 28.890625 -9.582031 28.320312 -7.367188 27.1875 -5.453125 C 26.050781 -3.535156 24.460938 -2.039062 22.421875 -0.96875 C 20.378906 0.101562 18.023438 0.640625 15.359375 0.640625 Z M 8.6875 -12.09375 C 8.6875 -10.132812 9.304688 -8.523438 10.546875 -7.265625 C 11.796875 -6.003906 13.398438 -5.375 15.359375 -5.375 C 17.328125 -5.375 18.921875 -6.003906 20.140625 -7.265625 C 21.367188 -8.523438 21.984375 -10.132812 21.984375 -12.09375 C 21.984375 -14.09375 21.367188 -15.710938 20.140625 -16.953125 C 18.921875 -18.191406 17.328125 -18.8125 15.359375 -18.8125 C 13.398438 -18.8125 11.796875 -18.191406 10.546875 -16.953125 C 9.304688 -15.710938 8.6875 -14.09375 8.6875 -12.09375 Z M 8.6875 -12.09375 "/></g></g></g><g fill="#38b6ff" fill-opacity="1"><g transform="translate(297.481288, 229.973099)"><g><path d="M 1.109375 0 L 9.703125 -12.28125 L 1.46875 -24.15625 L 9.390625 -24.15625 L 14.078125 -17.015625 L 16.328125 -20.46875 L 18.8125 -24.15625 L 26.71875 -24.15625 L 18.53125 -12.28125 L 27.09375 0 L 19.046875 0 L 16.421875 -3.859375 L 14.125 -7.3125 L 11.78125 -3.859375 L 9.15625 0 Z M 1.109375 0 "/></g></g></g></svg>